<?xml version="1.0" encoding="UTF-8" standalone="no"?>
<!-- Created with Inkscape (http://www.inkscape.org/) -->
<svg
   xmlns:dc="http://purl.org/dc/elements/1.1/"
   xmlns:cc="http://web.resource.org/cc/"
   xmlns:rdf="http://www.w3.org/1999/02/22-rdf-syntax-ns#"
   xmlns:svg="http://www.w3.org/2000/svg"
   xmlns="http://www.w3.org/2000/svg"
   xmlns:sodipodi="http://inkscape.sourceforge.net/DTD/sodipodi-0.dtd"
   xmlns:inkscape="http://www.inkscape.org/namespaces/inkscape"
   width="210mm"
   height="297mm"
   id="svg3223"
   sodipodi:version="0.32"
   inkscape:version="0.43"
   sodipodi:docbase="J:\Documents and Settings\Frank\Desktop\templates"
   sodipodi:docname="hat_tshirt_design.svg">
  <defs
     id="defs3" />
  <sodipodi:namedview
     inkscape:document-units="mm"
     id="base"
     pagecolor="#ffffff"
     bordercolor="#666666"
     borderopacity="1.0"
     inkscape:pageopacity="0.0"
     inkscape:pageshadow="2"
     inkscape:zoom="0.98994949"
     inkscape:cx="504.92329"
     inkscape:cy="728.88294"
     inkscape:current-layer="layer1"
     inkscape:window-width="749"
     inkscape:window-height="540"
     inkscape:window-x="132"
     inkscape:window-y="132" />
  <metadata
     id="metadata4">
    <rdf:RDF>
      <cc:Work
         rdf:about="">
        <dc:format>image/svg+xml</dc:format>
        <dc:type
           rdf:resource="http://purl.org/dc/dcmitype/StillImage" />
      </cc:Work>
    </rdf:RDF>
  </metadata>
  <g
     inkscape:label="Layer 1"
     inkscape:groupmode="layer"
     id="layer1">
    <g
       id="g3293"
       transform="matrix(1.827994,0,0,1.928524,-280.7065,-769.5778)">
      <path
         style="fill:#fefefe"
         d="M 289,532.36218 L 289,482.86218 L 350,482.86218 L 411,482.86218 L 410.99626,518.61218 C 410.99259,553.69911 410.95853,554.30654 409.15992,551.36218 C 407.18505,548.12928 400.54049,542.39224 395.17435,539.28678 C 391.46566,537.14051 391.50979,538.01325 394.369,523.36218 C 396.49392,512.47371 396.45072,505.64036 394.2397,502.90986 C 393.2218,501.65282 389.74235,499.9534 385.98969,498.88044 C 382.42036,497.85989 375.6433,495.42117 370.92955,493.46106 C 361.78872,489.66005 349.46107,486.86263 341.85034,486.86235 C 337.49578,486.86219 336.88475,487.20787 332.22264,492.30896 C 327.47983,497.49835 320.02504,512.36362 319.98469,516.71214 C 319.97386,517.87826 319.74194,518.00422 319.19387,517.14162 C 317.92919,515.15116 310.12846,512.8619 304.62427,512.86592 C 301.21448,512.86841 298.3686,513.55942 296.11844,514.93122 C 292.85468,516.92098 292.75692,517.16197 293.3121,521.84953 C 294.10696,528.56088 298.1762,536.10312 305.38953,544.23476 C 310.52785,550.02722 324.90194,562.86218 326.2507,562.86218 C 326.47506,562.86218 330.22293,564.89755 334.57931,567.38521 C 338.93569,569.87288 347.45,573.5236 353.5,575.49793 C 363.14996,578.64704 366.10582,579.15177 377.58406,579.61038 C 388.42051,580.04334 391.59849,579.82803 396.08406,578.35695 C 402.01762,576.41099 406.55599,573.68117 409.22776,570.45103 C 410.90076,568.42839 410.95623,568.57614 410.97776,575.11218 L 411,581.86218 L 350,581.86218 L 289,581.86218 L 289,532.36218 z M 381.58123,555.11218 C 383.5884,546.19982 384.08456,545.07288 386.25768,544.49046 C 390.04961,543.47418 390.2488,543.7174 389.5331,548.49003 C 388.59033,554.77688 388.26792,555.41908 385.39794,556.72673 C 381.62939,558.4438 380.90036,558.1354 381.58123,555.11218 z M 315.46487,533.80534 C 314.13963,531.66106 318.7263,518.18848 320.25956,519.72174 C 320.86275,520.32493 320.5419,523.27522 319.38449,527.76816 C 317.59865,534.70059 316.78895,535.94774 315.46487,533.80534 z "
         id="path3299" />
      <path
         style="fill:#f6cb07"
         d="M 363.5,577.42469 C 360.2,576.66882 355.25,575.28384 352.5,574.34695 C 347.35515,572.59416 330.44134,564.44181 328.29381,562.67971 C 327.6304,562.13537 326.54837,562.02327 325.8893,562.4306 C 325.19954,562.85689 324.95209,562.74872 325.30622,562.17572 C 325.64461,561.6282 324.47664,560.12593 322.71073,558.83734 C 316.73807,554.47905 307.83761,546.42727 306.75359,544.40175 C 306.16082,543.29417 308.77348,545.22638 312.55948,548.69557 C 323.63827,558.84727 337.3551,567.22191 352,572.77549 C 359.47678,575.6108 360.53813,575.32349 354.5,572.09874 L 349.5,569.42842 L 357.98882,568.69221 C 362.65767,568.2873 368.95767,567.08202 371.98882,566.01382 C 375.01997,564.94563 379.41926,563.84143 381.76501,563.56006 C 384.11077,563.27868 387.78032,562.13616 389.91957,561.02112 C 394.44598,558.66183 395.11897,559.08548 398.95236,566.70734 C 401.02711,570.83253 401.05047,571.14893 399.41388,572.95734 C 396.42008,576.26545 400.40104,575.32697 404.45285,571.76944 C 412.38159,564.80791 411.42459,556.03829 401.68652,546.41967 C 398.31352,543.08805 396.2167,540.84927 397.0269,541.4446 C 408.43313,549.82576 411.5549,554.7354 410.75711,563.03816 C 410.30917,567.70002 409.75861,568.74875 406.01536,572.0706 C 403.68612,574.13762 400.1423,576.34731 398.14019,576.98104 C 392.52807,578.75745 370.54763,579.03896 363.5,577.42469 z M 372.76166,561.15492 C 374.00557,560.91573 375.80557,560.92481 376.76166,561.1751 C 377.71775,561.42539 376.7,561.6211 374.5,561.61 C 372.3,561.5989 371.51775,561.39411 372.76166,561.15492 z M 361,559.74465 C 355.32533,558.22521 342.87215,553.6567 343.28357,553.24528 C 343.49209,553.03676 347.00109,554.03716 351.08135,555.46839 C 355.16161,556.89962 361.2,558.66295 364.5,559.3869 C 368.06662,560.16935 369.28331,560.69885 367.5,560.69249 C 365.85,560.68661 362.925,560.26009 361,559.74465 z M 381.27083,560.25801 C 381.60312,559.92572 382.46562,559.8902 383.1875,560.17907 C 383.98523,560.49829 383.74828,560.73525 382.58333,560.78323 C 381.52917,560.82665 380.93854,560.59031 381.27083,560.25801 z M 387.69424,557.44725 C 389.23741,556.11904 390.725,555.25778 391,555.53333 C 391.60592,556.14048 387.16401,559.86218 385.83345,559.86218 C 385.31371,559.86218 386.15107,558.77546 387.69424,557.44725 z M 381,543.09931 C 381,542.67973 382.0125,541.89223 383.25,541.34931 C 385.08973,540.54218 385.80363,538.84176 387.16515,532.02397 C 389.43656,520.64988 390.76582,508.1013 389.85532,506.62808 C 388.87535,505.04246 382.52327,508.08792 375.02691,513.73746 C 369.79019,517.68404 366.68707,518.7829 365.6262,517.06637 C 365.35568,516.62867 364.47967,513.4367 363.6795,509.9731 L 362.22465,503.67565 L 366.05233,507.41328 L 369.88001,511.15091 L 376.19,508.81324 C 379.6605,507.52752 383.82203,505.68355 385.43783,504.71554 L 388.37567,502.95551 L 385.62274,501.90884 C 384.10862,501.33318 382.43626,500.86218 381.90638,500.86218 C 381.3765,500.86218 378.3683,499.56552 375.22148,497.98072 C 368.99184,494.84335 362.14755,492.35478 355.8681,490.94388 C 352.57696,490.20441 351.95243,490.29584 352.39617,491.4522 C 353.10506,493.29955 352.66074,493.23991 348,490.86218 C 342.52936,488.07127 340.91412,488.32497 336.85827,492.61218 C 332.36936,497.35715 329.75938,501.74559 325.99034,510.8856 C 323.53596,516.83753 323.2178,518.44085 324.23001,519.7564 C 325.01038,520.77063 324.64301,520.6604 323.23277,519.45719 C 320.48753,517.11497 320.47135,516.31152 323.05189,510.47777 C 324.18043,507.92652 324.78591,505.32479 324.39738,504.69615 C 324.00424,504.06002 324.12987,503.82441 324.6807,504.16484 C 325.22505,504.50127 326.42998,503.18372 327.35832,501.23696 C 329.75505,496.21098 333.98439,491.09025 337.61825,488.81464 C 340.61008,486.94108 341.09437,486.92432 349.56402,488.40131 C 358.75496,490.00407 370.78331,493.7474 377.2843,497.02809 C 379.36566,498.07844 381.57269,498.62627 382.18881,498.24549 C 382.87061,497.82411 383.02977,498.00499 382.59549,498.70767 C 382.1258,499.46765 382.77342,499.86218 384.49064,499.86218 C 385.92541,499.86218 388.53947,500.6297 390.29966,501.56778 C 392.05985,502.50586 393.82131,503.18626 394.21401,503.07978 C 394.60672,502.9733 394.64275,503.62959 394.29407,504.53822 C 393.92445,505.50144 394.06973,505.93712 394.64251,505.58312 C 395.76787,504.88761 394.81655,514.57913 392.45561,527.86218 C 389.8357,542.60215 390.21016,541.70956 386.1764,542.82992 C 381.75882,544.05689 381,544.09638 381,543.09931 z M 306.52699,540.90585 C 306.20192,540.37988 305.30987,540.18978 304.54467,540.48341 C 303.76392,540.78301 302.65888,540.09331 302.02652,538.91173 C 301.40674,537.75367 300.4027,537.1133 299.79532,537.48868 C 299.15709,537.88313 298.97211,537.71632 299.35706,537.09346 C 300.01576,536.02766 296.30116,528.67464 294.77675,528.02677 C 294.34268,527.84229 294.21107,527.32968 294.48428,526.88762 C 294.75748,526.44557 294.59745,524.03078 294.12865,521.52142 C 293.28244,516.99189 293.30149,516.947 296.76742,515.3023 C 299.44823,514.03018 301.7953,513.79013 306.87928,514.26812 C 316.92285,515.2124 317,515.22707 317,516.1931 C 317,516.68939 315.9875,516.77676 314.75,516.38725 C 310.49375,515.0476 301.49579,514.68934 298.75,515.7502 C 296.30682,516.69414 296,517.32195 296,521.37727 C 296,525.8862 298.18466,531.41554 302.23968,537.16976 C 305.31756,541.53739 305.48523,539.55253 302.42857,534.93361 C 299.20264,530.0589 299.74847,528.83482 303.84679,531.75309 C 305.47587,532.91309 308.14667,533.86218 309.78193,533.86218 C 312.82546,533.86218 314.17307,534.92165 315.36766,538.25362 C 315.94287,539.85801 315.81466,539.95325 314.52289,538.88118 C 312.69181,537.36152 312.48716,538.87343 314.25,540.8972 C 314.9375,541.68646 314.18994,541.21396 312.58875,539.8472 C 310.98756,538.48044 310.00162,537.92468 310.39777,538.61218 C 311.28148,540.14584 310.49891,540.19956 307.85857,538.78649 C 306.03339,537.80968 305.95074,537.90161 306.95949,539.78649 C 308.05112,541.82622 307.68363,542.77734 306.52699,540.90585 z "
         id="path3297" />
      <path
         style="fill:#020101"
         d="M 382,578.80556 C 388.875,578.41069 395.625,577.80552 397,577.46074 C 398.375,577.11597 397.925,577.48102 396,578.27196 C 393.59481,579.26019 388.90278,579.68086 381,579.61677 L 369.5,579.52352 L 382,578.80556 z M 358,576.82027 C 352.54856,574.91748 353.36729,575.00144 364,577.43549 C 367.77976,578.30076 368.56169,578.70167 366.5,578.71728 C 364.85,578.72977 361.025,577.87612 358,576.82027 z M 401.55887,575.34684 C 403.38804,573.91891 403.32696,573.86987 400.5,574.49658 C 397.53779,575.15328 397.52291,575.13577 399.31887,573.10708 C 401.08201,571.11545 401.07078,570.91936 398.95236,566.70734 C 395.11897,559.08548 394.44598,558.66183 389.91957,561.02112 C 387.78032,562.13616 384.11077,563.27868 381.76501,563.56006 C 379.41926,563.84143 375.01997,564.94563 371.98882,566.01382 C 368.95767,567.08202 362.65767,568.2873 357.98882,568.69221 L 349.5,569.42842 L 354.5,572.09874 C 360.53813,575.32349 359.47678,575.6108 352,572.77549 C 337.3551,567.22191 323.63827,558.84727 312.55948,548.69557 C 308.77348,545.22638 306.16082,543.29417 306.75359,544.40175 C 308.00695,546.74368 317.29006,554.95621 324.5,560.10155 C 328.69657,563.09641 337.04734,567.54548 350,573.68729 L 352.5,574.87272 L 350,574.30813 C 346.1406,573.43654 332.22594,566.4217 325,561.70479 C 313.54855,554.22959 294.8768,533.44029 295.05358,528.36218 C 295.07273,527.81218 296.00104,529.09214 297.1165,531.20655 C 298.23196,533.32095 299.36846,534.82705 299.64206,534.55345 C 299.91567,534.27985 299.20813,532.23031 298.06976,529.99892 C 296.87158,527.6503 296,524.0197 296,521.37727 C 296,517.32195 296.30682,516.69414 298.75,515.7502 C 300.35393,515.1305 304.00051,514.95644 307.5,515.33252 C 310.8,515.68717 314.7375,516.016 316.25,516.06327 C 317.7625,516.11054 319.01623,516.64714 319.03608,517.2557 C 319.05592,517.86426 319.89685,516.11218 320.90482,513.36218 C 324.8339,502.64263 328.04944,496.72364 332.5684,491.89251 C 335.15631,489.12583 337.9996,486.86515 338.88684,486.86877 C 339.93954,486.87307 339.51475,487.52495 337.66415,488.74507 C 336.10444,489.77341 333.49257,492.23527 331.85999,494.21587 C 328.85646,497.85967 321,513.78201 321,516.22533 C 321,516.95511 322.00475,518.40945 323.23277,519.45719 C 324.64301,520.6604 325.01038,520.77063 324.23001,519.7564 C 322.01964,516.88362 329.87945,499.98909 336.85827,492.61218 C 340.91412,488.32497 342.52936,488.07127 348,490.86218 C 352.66074,493.23991 353.10506,493.29955 352.39617,491.4522 C 351.95243,490.29584 352.57696,490.20441 355.8681,490.94388 C 362.14755,492.35478 368.99184,494.84335 375.22148,497.98072 C 378.3683,499.56552 381.3765,500.86218 381.90638,500.86218 C 382.43626,500.86218 384.10862,501.33318 385.62274,501.90884 L 388.37567,502.95551 L 385.43783,504.71554 C 383.82203,505.68355 379.6605,507.52752 376.19,508.81324 L 369.88001,511.15091 L 366.05233,507.41328 L 362.22465,503.67565 L 363.6795,509.9731 C 364.47967,513.4367 365.35568,516.62867 365.6262,517.06637 C 366.68707,518.7829 369.79019,517.68404 375.02691,513.73746 C 382.52327,508.08792 388.87535,505.04246 389.85532,506.62808 C 390.76582,508.1013 389.43656,520.64988 387.16515,532.02397 C 385.80363,538.84176 385.08973,540.54218 383.25,541.34931 C 382.0125,541.89223 381,542.67973 381,543.09931 C 381,544.09773 381.75782,544.05715 386.21151,542.82023 C 389.45154,541.92037 390.00183,541.31768 390.5434,538.0758 C 391.40718,532.90523 391.82872,531.93243 391.92105,534.89657 C 391.97592,536.65804 392.99117,538.00459 395.25,539.31186 C 403.24438,543.93849 412.5057,553.68981 410.65919,555.53632 C 410.39064,555.80488 409.43234,554.46819 408.52965,552.56591 C 407.12795,549.61205 403.9161,546.50671 397.0269,541.4446 C 396.2167,540.84927 398.31352,543.08805 401.68652,546.41967 C 410.92287,555.54272 412.22148,563.12353 405.80064,570.43646 C 404.14634,572.32061 403.20524,573.86218 403.70932,573.86218 C 404.86394,573.86218 409.5683,568.86284 410.29629,566.86218 C 410.78146,565.52885 410.84841,565.52885 410.89882,566.86218 C 410.97223,568.80399 408.31706,571.98008 404.34563,574.70103 C 400.76608,577.15348 398.60222,577.65494 401.55887,575.34684 z M 376.76166,561.1751 C 375.80557,560.92481 374.00557,560.91573 372.76166,561.15492 C 371.51775,561.39411 372.3,561.5989 374.5,561.61 C 376.7,561.6211 377.71775,561.42539 376.76166,561.1751 z M 364.5,559.3869 C 361.2,558.66295 355.16161,556.89962 351.08135,555.46839 C 347.00109,554.03716 343.49209,553.03676 343.28357,553.24528 C 342.87215,553.6567 355.32533,558.22521 361,559.74465 C 362.925,560.26009 365.85,560.68661 367.5,560.69249 C 369.28331,560.69885 368.06662,560.16935 364.5,559.3869 z M 383.1875,560.17907 C 382.46562,559.8902 381.60312,559.92572 381.27083,560.25801 C 380.93854,560.59031 381.52917,560.82665 382.58333,560.78323 C 383.74828,560.73525 383.98523,560.49829 383.1875,560.17907 z M 389.13922,557.94826 C 390.43765,556.8956 391.275,555.80889 391,555.53333 C 390.725,555.25778 389.23741,556.11904 387.69424,557.44725 C 384.38834,560.29265 385.69054,560.74415 389.13922,557.94826 z M 386.775,556.11218 C 388.71731,554.40974 391.38882,544.22052 390.10148,543.4249 C 389.75977,543.21371 388.08094,543.62926 386.37075,544.34834 C 383.90473,545.38522 383.11668,546.45309 382.56238,549.50897 C 382.17797,551.62824 381.62039,554.37468 381.32332,555.61218 C 380.90017,557.37488 381.21583,557.86218 382.78081,557.86218 C 383.8795,557.86218 385.67689,557.07468 386.775,556.11218 z M 306.95949,539.78649 C 305.95074,537.90161 306.03339,537.80968 307.85857,538.78649 C 310.49891,540.19956 311.28148,540.14584 310.39777,538.61218 C 310.00162,537.92468 310.98756,538.48044 312.58875,539.8472 C 314.18994,541.21396 314.9375,541.68646 314.25,540.8972 C 312.48716,538.87343 312.69181,537.36152 314.52289,538.88118 C 315.81466,539.95325 315.94287,539.85801 315.36766,538.25362 C 314.17307,534.92165 312.82546,533.86218 309.78193,533.86218 C 308.14667,533.86218 305.47587,532.91309 303.84679,531.75309 C 299.74847,528.83482 299.20264,530.0589 302.42857,534.93361 C 303.92526,537.19525 304.92707,539.26845 304.65481,539.5407 C 304.38256,539.81295 303.38789,538.85762 302.44444,537.41774 C 301.501,535.97785 300.52908,534.99976 300.28464,535.24421 C 299.37162,536.15723 303.34834,540.94249 304.6159,540.45608 C 305.34193,540.17748 306.20192,540.37988 306.52699,540.90585 C 307.68363,542.77734 308.05112,541.82622 306.95949,539.78649 z M 320.57393,520.19424 C 319.70576,517.93184 318.59534,519.36772 316.63292,525.29032 C 314.68021,531.18357 314.54931,534.54323 316.25,535.11788 C 317.77462,535.63305 321.52768,522.67968 320.57393,520.19424 z M 392.2896,529.32099 C 394.03621,520.11321 395.18839,508.74892 394.60927,506.44151 C 393.8675,503.48609 388.70464,499.87163 385.21676,499.86592 C 383.96097,499.86386 380.81097,498.79537 378.21676,497.49148 C 374.12396,495.43439 362.66316,491.20878 356.5,489.4845 C 355.4,489.17674 356.17189,489.105 358.21531,489.32506 C 360.25872,489.54513 365.88372,491.3629 370.71531,493.36457 C 381.06315,497.65155 383.10245,498.38425 388.74417,499.84219 C 395.9933,501.71551 397.37089,507.27909 394.53096,523.213 C 393.76137,527.53095 392.81243,531.35595 392.42221,531.713 C 392.03199,532.07005 391.97232,530.99364 392.2896,529.32099 z M 293.64066,524.65184 C 293.30332,523.39253 293.07047,521.23718 293.12322,519.86218 C 293.17974,518.38901 293.57655,519.18456 294.08933,521.79908 C 295.00791,526.48268 294.68355,528.54502 293.64066,524.65184 z M 312,514.71713 C 310.625,514.15707 306.69694,513.86882 303.27097,514.07657 C 299.845,514.28432 297.595,514.10296 298.27097,513.67355 C 300.26133,512.40917 310.24816,512.83707 313.5,514.32606 C 316.96577,515.91301 315.72819,516.23566 312,514.71713 z M 350.75,488.1999 C 351.4375,487.92249 352.5625,487.92249 353.25,488.1999 C 353.9375,488.47731 353.375,488.70429 352,488.70429 C 350.625,488.70429 350.0625,488.47731 350.75,488.1999 z M 344.25,487.17285 C 345.2125,486.92133 346.7875,486.92133 347.75,487.17285 C 348.7125,487.42438 347.925,487.63018 346,487.63018 C 344.075,487.63018 343.2875,487.42438 344.25,487.17285 z "
         id="path3295" />
    </g>
  </g>
</svg>
