<svg id="Layer_1" data-name="Layer 1" xmlns="http://www.w3.org/2000/svg" viewBox="0 0 415.638 65.502">
  <defs>
    <style>
      .cls-1 {
        fill: #27292f;
      }

      .cls-2 {
        fill: #e27c00;
      }

      .cls-3 {
        fill: #009bde;
      }
    </style>
  </defs>
  <title>f52787ab-9edd-42c3-9fff-e54860694264</title>
  <polygon class="cls-1" points="140.338 0.651 180.638 0.651 180.638 10.251 150.838 10.251 150.838 27.651 177.238 27.651 177.238 37.151 150.838 37.151 150.838 55.051 181.038 55.051 181.038 64.551 140.338 64.551 140.338 0.651"/>
  <polygon class="cls-1" points="245.638 0.651 226.838 31.951 246.538 64.551 234.438 64.551 220.538 40.251 206.638 64.551 194.838 64.551 214.438 31.951 195.638 0.651 207.738 0.651 220.738 23.651 233.838 0.651 245.638 0.651"/>
  <polygon class="cls-1" points="262.938 0.651 303.238 0.651 303.238 10.251 273.438 10.251 273.438 27.651 299.838 27.651 299.838 37.151 273.438 37.151 273.438 55.051 303.738 55.051 303.738 64.551 262.938 64.551 262.938 0.651"/>
  <polygon class="cls-1" points="321.638 0.651 332.238 0.651 332.238 54.851 359.638 54.851 359.638 64.551 321.638 64.551 321.638 0.651"/>
  <path class="cls-1" d="M371.638,56.3l6.4-7.9c4.7,4.3,10,7.6,16.8,7.6,6.1,0,10-3.4,10-8.1V47.8c0-4-2.1-6.7-12.2-10.4-12.1-4.6-18.4-9-18.4-19.3V17.9c0-10.5,8.4-17.9,20.3-17.9a29.923,29.923,0,0,1,20.1,7.5l-6,8.1c-4.4-3.6-9.2-6-14.3-6-5.8,0-9.3,3.2-9.3,7.4v0.1c0,4.5,2.4,6.8,13.2,11,11.9,4.6,17.4,9.5,17.4,18.8v0.2c0,11.2-8.8,18.4-20.7,18.4a32.92,32.92,0,0,1-23.3-9.2"/>
  <path class="cls-2" d="M26.438,44.2a15.557,15.557,0,1,1,.2-22,15.6,15.6,0,0,1-.2,22"/>
  <path class="cls-1" d="M44.938,0.951h19.5c18.3,0,30.3,12.8,30.3,31.5v0.7c0,18.7-12,31.7-30.3,31.7h-19.5V0.951Z"/>
  <path class="cls-3" d="M122.238,40.5a10.325,10.325,0,1,1,.2-14.6,10.292,10.292,0,0,1-.2,14.6"/>
</svg>
