<?xml version="1.0" encoding="iso-8859-1"?>
<!DOCTYPE svg PUBLIC "-//W3C//DTD SVG 20000802//EN"    "http://www.w3.org/TR/2000/CR-SVG-20000802/DTD/svg-20000802.dtd">
<svg  id="V745c0e4"   xmlns="http://www.w3.org/2000/svg" xmlns:xlink="http://www.w3.org/1999/xlink" width="140" height="140" viewBox="0 0 140 140" preserveAspectRatio="xMinYMin" xml:space="preserve">
	<animate id="D745c0e4" xlink:href="#V745c0e4"  dur="indefinite"/>
	<defs>
		<rect id="B745c0e4" width="140" height="140"/> 
	</defs>
	<use xlink:href="#B745c0e4"  id="U745c0e4" style="fill:#FFFFFF;"/>
	<g id="G7460844" transform="matrix(1 0 0 1 70 70)">
		<svg  id="V7460844" style="overflow:visible;" xml:space="preserve">
			<animate id="D7460844" xlink:href="#V7460844"  dur="indefinite" repeatDur="indefinite"/>
			<g id="S74608a4">
				<g id="P7463554" transform="matrix(1 0 0 1 2 0)" style="display:none;opacity:0.12;">
					<defs>
						<image style="display:inline;" width="140" height="140" id="B74635b4" xlink:href="images/B74635b4.jpg"  transform="matrix(0.9071 0 0 0.9071 -63.5 -63.5)"/>
					</defs>
					<use xlink:href="#B74635b4"  id="U7464734" style="display:inline;fill:none;"/>
					<animate xlink:href="#P7463554" attributeName="display" attributeType="CSS"  begin="P745db34.mouseover+1.6667s" dur="1.3333s" fill="freeze" calcMode="discrete" values="inline;inline;inline"  keyTimes="0;
						0.9999;0.9999" />
					<animate xlink:href="#P7463554" attributeName="opacity" attributeType="CSS"  begin="P745db34.mouseover+1.6667s" dur="1.3333s" fill="freeze" values="0.12;1;0;0"  keyTimes="0;0.375;0.625;1" />
				</g>
				<g id="P7462204" transform="matrix(1 0 0 1 9 -2)">
					<defs>
						<image width="140" height="140" id="B7462264" xlink:href="images/B7462264.jpg"  transform="matrix(1 0 0 1 -70 -70)"/>
					</defs>
					<use xlink:href="#B7462264"  id="U7463314" style="fill:none;"/>
					<animate xlink:href="#P7462204" attributeName="opacity" attributeType="CSS"  begin="P745db34.mouseover" dur="3s" fill="freeze" values="1;1;1;0;0.11;0.2;1"  keyTimes="0;0.0556;0.1111;0.3056;0.8333;0.9167;1" />
				</g>
				<g id="P7460fe4" transform="matrix(1 0 0 1 9 5)" style="display:none;opacity:0.06;">
					<defs>
						<image style="display:inline;" width="140" height="140" id="B7461044" xlink:href="images/B7461044.jpg"  transform="matrix(1 0 0 1 -70 -70)"/>
					</defs>
					<use xlink:href="#B7461044"  id="U7461fc4" style="display:inline;fill:none;"/>
					<animate xlink:href="#P7460fe4" attributeName="display" attributeType="CSS"  begin="P745db34.mouseover+0.8333s" dur="2.1667s" fill="freeze" calcMode="discrete" values="inline;inline;inline"  keyTimes="0;0.9999;0.9999" />
					<animate xlink:href="#P7460fe4" attributeName="opacity" attributeType="CSS"  begin="P745db34.mouseover+0.8333s" dur="2.1667s" fill="freeze" values="0.06;0.99;0;0"  keyTimes="0;0.2308;0.3846;1" />
				</g>
				<g id="P7460b34">
					<defs>
						<path id="B7460b94" d="M0,75q-31.07,0-53.04-21.96Q-75,31.07-75,0q0-31.07,21.96-53.04Q-31.07-75,0-75q31.07,0,53.04,21.96Q75-31.07,75,0q0,31.07-21.96,53.04Q31.07,75,0,75z M5.44-67.23q-27.85,0-47.54,19.69Q-61.79-27.85-61.79,0q0,27.85,19.69,47.54
							q19.69,19.69,47.54,19.69q27.85,0,47.54-19.69Q72.67,27.85,72.67,0q0-27.85-19.69-47.54Q33.29-67.23,5.44-67.23z"/>
					</defs>
					<use xlink:href="#B7460b94"  id="U7460da4" style="fill:#009999;"/>
					<animate xlink:href="#U7460da4" attributeName="fill" attributeType="CSS"  begin="P745db34.mouseover" dur="1.9167s" fill="freeze" values="#009999;#FFFFFF;#9F002E;#0066CC;#CC9900;#FF9900"  keyTimes="0;0.0435;0.5217;0.913;0.9565;1" />
				</g>
			</g>
		</svg>
	</g>
	<g id="P7460234" transform="matrix(1 0 0 1 70 69)">
		<svg  id="V7460234" style="overflow:visible;" xml:space="preserve">
			<defs>
				<path id="B7460294" d="M-73,73q0-146,0-146q146,0,146,0q0,146,0,146q-146,0-146,0z M4.74-62.78q-26.16,0-44.65,18.49Q-58.4-25.8-58.4,0.37q0,26.16,18.49,44.65q18.49,18.49,44.65,18.49q26.16,0,44.65-18.49Q67.89,26.53,67.89,0.37q0-26.16-18.49-44.65
					Q30.91-62.78,4.74-62.78z"/>
			</defs>
			<defs>
				<filter id="F7460604" filterUnits="objectBoundingBox" x="-4.0816%" y="-4.0816%" width="109.1837%" height="109.1837%">
					<feOffset  id="F7460604_3000" in="SourceGraphic" dx="0" dy="1" result="a7460604"/>
					<feGaussianBlur  id="F7460604_4000" in="a7460604" stdDeviation="3" result="a7460604"/>
				</filter>
			</defs>
			<use xlink:href="#B7460294"  id="U7460604" style="fill-opacity:0.75;filter:url(#F7460604);"/>
			<use xlink:href="#B7460294"  id="U74604a4" style="fill:#FFFFFF;"/>
		</svg>
	</g>
	<g id="P745dfe4" transform="matrix(1 0 0 1 70 70)">
		<defs>
			<path id="B745e044" d="M0,68q-28.17,0-48.09-19.91Q-68,28.17-68,0q0-28.17,19.91-48.09Q-28.17-68,0-68q28.17,0,48.09,19.91Q68-28.17,68,0q0,28.17-19.91,48.09Q28.17,68,0,68z M4.93-60.95q-25.25,0-43.1,17.85Q-56.02-25.25-56.02,0q0,25.25,17.85,43.1
				q17.85,17.85,43.1,17.85q25.25,0,43.1-17.85Q65.89,25.25,65.89,0q0-25.25-17.85-43.1Q30.19-60.95,4.93-60.95z"/>
		</defs>
		<use xlink:href="#B745e044"  id="U745fff4" style="fill:#FF9900;"/>
		<animate xlink:href="#U745fff4" attributeName="fill" attributeType="CSS"  dur="3s" fill="freeze" values="#FF9900;#FF9900" />
	</g>
	<a xlink:href="javascript:OpenWindow('/svg/demos/reflections/01_faith.svgz ',600,550,'scrollbars=yes,menubar=no,toolbar=no,location=no,status=no,resizable=yes');">
	<g id="P745db34" transform="matrix(1 0 0 1 70 70)" style="opacity:0;">
		<svg  id="V745db34" style="overflow:visible;" xml:space="preserve">
			<defs>
				<ellipse id="B745db94" pointer-events="visible" transform="matrix(1 0 0 1 -68 -68)" cx="68.5" cy="68.5" rx="68.5" ry="68.5"/> 
			</defs>
			<use xlink:href="#B745db94"  id="U745dda4" style="fill:#FFFFBF;"/>
		</svg>
	</g>
	</a>
	<g id="G745c584" transform="matrix(1 0 0 1 91 84)">
		<g id="S745c5e4">
			<g id="P745d684" transform="matrix(1 0 0 1 -108 -5)">
				<defs>
					<rect id="B745d6e4" transform="matrix(1 0 0 1 -15 -112)" width="31" height="225"/> 
				</defs>
				<use xlink:href="#B745d6e4"  id="U745d8f4" style="fill:#FFFFFF;"/>
			</g>
			<g id="P745d1d4" transform="matrix(1 0 0 1 0 -117)">
				<defs>
					<rect id="B745d234" transform="matrix(1 0 0 1 -138 -29)" width="276" height="59"/> 
				</defs>
				<use xlink:href="#B745d234"  id="U745d444" style="fill:#FFFFFF;"/>
			</g>
			<g id="P745cd24" transform="matrix(1 0 0 1 94 0)">
				<defs>
					<rect id="B745cd84" transform="matrix(1 0 0 1 -21 -110)" width="43" height="220"/> 
				</defs>
				<use xlink:href="#B745cd84"  id="U745cf94" style="fill:#FFFFFF;"/>
			</g>
			<g id="P745c874" transform="matrix(1 0 0 1 9 113)">
				<defs>
					<rect id="B745c8d4" transform="matrix(1 0 0 1 -121 -32)" width="242" height="65"/> 
				</defs>
				<use xlink:href="#B745c8d4"  id="U745cae4" style="fill:#FFFFFF;"/>
			</g>
		</g>
	</g>
</svg>
