<?xml version="1.0" encoding="UTF-8"?>
<!-- Copyright (C) TinyLine 2002-2004. All rights reserved. -->
<!-- Copyright (C) Edik Mitgartz 2004. All rights reserved. -->
<!-- Generator: Mobile Designer 1.0 -->
<svg width="176" height="208" viewBox="-88 -104 176 208" stroke-miterlimit="2"
	xmlns="http://www.w3.org/2000/svg"
	xmlns:xlink="http://www.w3.org/1999/xlink"
	xml:space="preserve" version="1.1" baseProfile="tiny">

<!-- Movie Background -->
<rect fill="#fff" x="-88" y="-104" width="176" height="208"/>

<!-- Scene 1 -->
<g id="Scene_1">

	<!-- Scene Background Color -->
	<rect fill="#fff" x="-88" y="-104" width="176" height="208"/>
	<rect id="Rectangle_71" x="-91" y="-110" width="182" height="136" fill="#f55"/>
	<path id="Free_Hand_72" fill="#727272"
		d="M-49.78 -96.43 c-6.61 -16.53 1.38 -25.76 15.24 -20 c28 -3.99 -7.62 -27.54 8.47 -35.73
			c31.77 -23.03 69.01 10.37 101.78 -6.92 c50.64 -9.75 108.65 -15.06 154.15 16.15
			c22.35 20.37 11.88 65.5 -20.58 68.38 c-47.03 9.81 -28.99 -1.88 -74.28 -3.93
			c5.77 14.27 -76.54 9.49 -85.38 -0.64 c-16.97 -11.16 -29.09 0.26 -38.3 13.37
			c-7.87 11.21 1.72 -21.44 16.77 -25.24 c-12.94 -12.14 -33.34 -11.08 -40.03 3.1
			c-8.49 18.01 -13.85 0.83 -3.05 -6.43 c-10.39 0.7 -24.38 -14.76 -31.78 -2.08"/>
	<path id="Bezier_43" fill="#3f3f3f"
		d="M-93 -97 c-1 -1 166 79 166 79 c0 0 -3 -47 -3 -47
			c0 0 53 0 53 0 c0 0 5 147 5 147
			c0 0 -220 41 -220 41 c0 0 -2 -221 -1 -220 Z"/>
	<path id="Bezier_44" fill="#3f3f3f"
		d="M-53 -72 c0 1 1 -26 1 -26 c0 0 8 0 8 0
			c0 0 2 35 2 35 c0 0 -11 -8 -11 -9 Z"/>
	<path id="Bezier_45" fill="#3f3f3f"
		d="M-23 -55 c0 0 1 -28 1 -28 c0 0 8 0 8 0
			c0 0 1 32 1 32 c0 0 -10 -4 -10 -4 Z"/>
	<path id="Bezier_46" fill="#3f3f3f"
		d="M7 -44 c0 1 1 -24 1 -24 c0 0 7 0 7 0
			c0 0 1 29 1 29 c0 0 -9 -4 -9 -5 Z"/>
	<path id="Bezier_51" fill="#7f7f7f"
		d="M-42 8 c0 1 0 -28 0 -28 c0 0 9 3 9 3
			c0 0 0 27 0 27 c0 0 -9 -1 -9 -2 Z"/>
	<path id="Bezier_53" fill="#7f7f7f"
		d="M1 17 c0 1 1 -24 1 -24 c0 0 7 4 7 4
			c0 0 0 22 0 22 c0 0 -8 -1 -8 -2 Z"/>
	<path id="Bezier_74" fill="#7f7f7f"
		d="M-101 -45 c0 -1 21 9 21 9 c0 0 0 35 0 35
			c0 0 -21 -5 -21 -5 c0 0 0 -40 0 -39 Z"/>
	<polyline id="Line_54" fill="none" stroke="#747474" stroke-linejoin="bevel"
		 points="71,-56 125,-56 "/>
	<polyline id="Line_55" fill="none" stroke="#747474" stroke-linejoin="bevel"
		 points="71,-45 128,-45 "/>
	<polyline id="Line_57" fill="none" stroke="#747474" stroke-linejoin="bevel"
		 points="73,-35 141,-35 "/>
	<polyline id="Line_58" fill="none" stroke="#747474" stroke-linejoin="bevel"
		 points="72,-24 138,-24 "/>
	<polyline id="Line_59" fill="none" stroke="#747474" stroke-linejoin="bevel"
		 points="73,-15 138,-15 "/>
	<polyline id="Line_62" fill="none" stroke="#747474" stroke-linejoin="bevel"
		 points="74,-5 135,-5 "/>
	<polyline id="Line_63" fill="none" stroke="#747474" stroke-linejoin="bevel"
		 points="76,6 132,6 "/>
	<polyline id="Line_64" fill="none" stroke="#747474" stroke-linejoin="bevel"
		 points="77,-64 79,123 "/>
	<polyline id="Line_65" fill="none" stroke="#747474" stroke-linejoin="bevel"
		 points="84,-65 85,123 "/>
	<polyline id="Line_66" fill="none" stroke="#7c7c7c" stroke-linejoin="bevel"
		 points="-109,-51 76,10 "
		transform="rotate(1.14 -16.5 -20.5)"/>
	<polyline id="Line_67" fill="none" stroke="#7c7c7c" stroke-linejoin="bevel"
		 points="-104,18 77,38 "/>
	<polyline id="Line_68" fill="none" stroke="#7c7c7c" stroke-linejoin="bevel"
		 points="-99,42 76,51 "/>
	<path id="Text_01_copy" fill="#999"
		d="M-74.3 -51.3 l-0.22 -23.24 l-7.48 -4.08 l0 -3.13 l16.93 9.54 l0.05 2.86
			l-6.67 -3.64 l0.29 22.89 l-2.9 -1.18 Z M-62.71 -67.55 l-0.07 -3.38 l2.27 1.28
			l0.08 3.34 l-2.27 -1.23 Z M-62.21 -46.36 l-0.41 -17.93 l2.28 1.19 l0.45 17.69
			l-2.32 -0.95 Z M-57.42 -44.4 l-0.49 -17.43 l1.93 1.01 l0.07 2.4 c0.85 -1.38 2.13 -1.62 3.8 -0.75
			c0.71 0.37 1.37 0.89 1.97 1.55 c0.59 0.65 1.04 1.34 1.35 2.05
			c0.3 0.71 0.53 1.49 0.67 2.33 c0.09 0.54 0.16 1.45 0.21 2.73
			l0.4 10.15 l-1.96 -0.8 l-0.38 -10.17 c-0.04 -1.14 -0.15 -2.02 -0.32 -2.66
			c-0.17 -0.63 -0.46 -1.22 -0.87 -1.76 c-0.4 -0.53 -0.88 -0.94 -1.42 -1.21
			c-0.87 -0.44 -1.61 -0.44 -2.24 0 c-0.62 0.45 -0.91 1.77 -0.84 3.96
			l0.29 9.48 l-2.18 -0.89 Z M-44.39 -32.83 l-0.32 -2.71 c0.41 0.32 0.77 0.53 1.07 0.65
			c0.4 0.15 0.72 0.17 0.96 0.06 c0.23 -0.11 0.41 -0.32 0.55 -0.62
			c0.1 -0.23 0.25 -0.83 0.45 -1.82 c0.02 -0.13 0.06 -0.33 0.12 -0.6
			l-4.77 -17.9 l1.98 1.03 l2.6 10.19 c0.33 1.28 0.64 2.61 0.92 3.99
			c0.14 -1.14 0.32 -2.23 0.54 -3.26 l1.7 -7.9 l1.64 0.85 l-2.98 13.9
			c-0.33 1.58 -0.6 2.66 -0.81 3.24 c-0.27 0.78 -0.6 1.31 -0.99 1.58
			c-0.39 0.27 -0.88 0.3 -1.46 0.09 c-0.35 -0.12 -0.75 -0.38 -1.21 -0.77
			M-34.61 -35.08 l-1.1 -20.6 l1.68 0.94 l0.99 17.9 l5.95 2.54 l0.14 2.34
			l-7.67 -3.13 Z M-26.37 -47.85 l-0.16 -2.66 l1.34 0.76 l0.17 2.63 l-1.35 -0.73
			Z M-25.32 -31.28 l-0.89 -14.01 l1.35 0.7 l0.9 13.86 l-1.36 -0.55 Z M-21.94 -29.9
			l-0.91 -13.64 l1.15 0.6 l0.12 1.89 c0.44 -1.18 1.17 -1.5 2.18 -0.97
			c0.43 0.22 0.83 0.57 1.21 1.04 c0.37 0.46 0.66 0.96 0.87 1.51
			c0.2 0.54 0.36 1.14 0.48 1.79 c0.07 0.42 0.14 1.14 0.22 2.16
			l0.59 8.03 l-1.18 -0.48 l-0.57 -8.03 c-0.06 -0.9 -0.16 -1.59 -0.28 -2.09
			c-0.12 -0.49 -0.31 -0.93 -0.57 -1.31 c-0.25 -0.38 -0.55 -0.66 -0.87 -0.83
			c-0.52 -0.26 -0.95 -0.19 -1.3 0.21 c-0.34 0.41 -0.46 1.48 -0.34 3.21
			l0.5 7.42 l-1.28 -0.52 Z M-10.16 -28.95 l1.09 0.74 c-0.06 1.18 -0.29 2.03 -0.69 2.54
			c-0.4 0.51 -0.97 0.62 -1.7 0.32 c-0.94 -0.38 -1.74 -1.26 -2.39 -2.66
			c-0.66 -1.4 -1.07 -3.16 -1.22 -5.25 c-0.16 -2.15 0 -3.67 0.49 -4.56
			c0.48 -0.87 1.16 -1.07 2.05 -0.6 c0.84 0.44 1.56 1.35 2.17 2.72
			c0.6 1.36 0.98 3.04 1.15 5.05 c0 0.12 0.02 0.3 0.03 0.54
			l-4.7 -2.17 c0.14 1.41 0.43 2.58 0.85 3.48 c0.42 0.89 0.9 1.46 1.43 1.68
			c0.39 0.16 0.71 0.1 0.95 -0.18 c0.24 -0.28 0.4 -0.84 0.49 -1.66
			M-13.97 -34.02 l3.55 1.69 c-0.12 -1.05 -0.32 -1.89 -0.58 -2.51 c-0.39 -0.96 -0.86 -1.59 -1.41 -1.87
			c-0.49 -0.25 -0.89 -0.14 -1.18 0.33 c-0.29 0.48 -0.42 1.26 -0.37 2.35"/>

	<!-- Animation -->
	<g id="Animation_1">
		<path id="Bezier_15" fill="#fc0"
			d="M27.5 -63.5 c-0.5 -0.25 14.27 63.39 28.75 45 c9.25 -11.75 9.22 -22.79 8.5 -28
				c-1.8 -12.96 -11.73 -18.52 -14 -19.75 c-13 -7 -23.75 2.5 -23.25 2.75 Z"/>
		<path id="Bezier_14" fill="#c97900"
			d="M29.58 -63.75 c0 -0.66 13.78 -2.76 14.83 -2.08 c35.99 23.37 12 46.83 12 46.83
				c0 0 -5.8 7.65 -17.66 0.25 c-31.25 -19.5 -9.16 -45.66 -9.16 -45 Z"/>
		<ellipse id="Ellipse_1" cx="43" cy="-35" rx="19.99" ry="21" fill="#f96"/>
		<path id="Bezier_2" fill="#f96"
			d="M30 -22 c0 0 24 0 24 0 c0 0 12 41 12 41
				c0 0 -49 0 -49 0 c0 0 13 -41 13 -41 Z"/>
		<path id="Bezier_3" fill="#69c"
			d="M-24 14 c-1 0 48 -17 48 -17 c0 0 15 19 15 19
				c0 0 21 -22 21 -22 c0 0 42 9 42 9
				c0 0 32 113 32 113 c0 0 -215 1 -215 1
				c0 0 56 -103 57 -103 Z"/>
		<path id="Bezier_4" fill="#2e5e8c"
			d="M-1 5 c0 -1 18 -6 18 -6 c0 0 -20 124 -20 124
				c0 0 -45 0 -45 0 c0 0 47 -119 47 -118 Z"/>
		<path id="Bezier_5" fill="#2e5e8c"
			d="M66 -5 c0 -1 12 124 12 124 c0 0 40 0 40 0
				c0 0 -36 -122 -36 -122 c0 0 -16 -3 -16 -2 Z"/>
		<path id="Bezier_6" fill="#2e5e8c"
			d="M-11 49 c0 -2 103 -4 103 -4 c0 0 21 81 21 81
				c0 0 -153 1 -153 1 c0 0 29 -80 29 -78 Z"/>
		<path id="Bezier_75" fill="none" stroke="#648abc" stroke-linejoin="bevel"
			d="M9 62 c-1 0 59 0 59 0 c0 0 8 32 8 32
				c0 0 -73 2 -73 2 c0 0 5 -34 6 -34 Z"
			transform="translate(1,-7.29) scale(1,1.11765)"/>
		<polyline id="Line_9" fill="none" stroke="#369" stroke-linejoin="bevel"
			 points="21.33,-1.33 18.66,18 "/>
		<polyline id="Line_10" fill="none" stroke="#369" stroke-linejoin="bevel"
			 points="18.66,17 33.33,10.33 "/>
		<polyline id="Line_11" fill="none" stroke="#369" stroke-linejoin="bevel"
			 points="47.33,8.66 60,17.33 "/>
		<polyline id="Line_12" fill="none" stroke="#369" stroke-linejoin="bevel"
			 points="60,16.66 61.33,-5.33 "/>
		<polyline id="Line_13" fill="none" stroke="#369" stroke-linejoin="bevel"
			 points="40,16 36.66,47.33 "/>
		<path id="Bezier_17" fill="#c4754d"
			d="M29.5 -21 c-0.75 -0.22 20.75 1.75 30.25 -5 c0 0 -1.75 4.75 -4.75 6
				c0 0 -6.5 4.75 -25.5 -1 Z"/>
		<path id="Bezier_18" fill="#0c3"
			d="M-36 94 c0 0 -24.5 -25 -35.5 -65 c0 0 18 -18.5 58.5 -8 c0 0 8.5 31.5 8 73"/>
		<path id="Bezier_19" fill="#3f6"
			d="M-70.5 27.5 c0.07 1.57 47.34 -6.45 51 -2.5 c6 6.5 14 67.5 14 67.5
				c0 0 9 3.5 -7.5 -73.5 c-0.63 -2.97 -58 -1.5 -57.5 8.5 Z"/>
		<path id="Bezier_20" fill="#0c3"
			d="M-70 31 c-5.25 -7 -8.5 -19.25 -8.5 -21.75 c0 0 7.5 0.5 10 -0.75
				c0 0 15.5 23.25 15.5 23.25 c0 0 -12.9 4.71 -17 -0.75 Z"/>
		<path id="Bezier_22" fill="#3f6"
			d="M-78.75 8.75 c-0.24 -0.05 4.5 -3.5 4.5 -3.5 c0 0 8.25 -0.75 8.25 -0.75
				c0 0 7 4.75 12.5 15.5 c0 0 -0.83 8.79 -3 6.75
				c-10.83 -10.25 -12.75 -18.25 -12.75 -18.25 c0 0 -4.75 1.25 -9.5 0.25 Z"/>
		<ellipse id="Ellipse_36" cx="-41.49" cy="53" rx="37.49" ry="19.99" fill="#f96"/>
		<ellipse id="Ellipse_37" cx="-33" cy="78.5" rx="33" ry="17.49" fill="#f96"/>
		<ellipse id="Ellipse_38" cx="-19.99" cy="101" rx="28.99" ry="12" fill="#f96"/>
		<path id="Bezier_41" fill="#c4754d"
			d="M-53.25 68 c-0.49 0.03 27.47 2.31 39.5 -2.75 c4.75 -2 6.5 -6.25 6.5 -6.25
				c0 0 -6.75 6.5 -46 9 Z"/>
		<path id="Bezier_42" fill="#c4754d"
			d="M-37 93.75 c-1.11 0.08 14.88 1.14 28 -3.75 c3.12 -1.16 5.25 -5.5 5.25 -5.5
				c0 0 -9.5 7.49 -33.25 9.25 Z"/>
		<path id="Bezier_78" fill="#c4754d"
			d="M27.5 -45.62 c0 0 1 2.87 1 2.87 c0 0 10.75 -1.12 10.75 -1.12
				c0 0 1.87 7 1.87 7 c0 0 -5.12 1.62 -5.12 1.62
				c0 0 8 0 8 0 c0 0 -2.5 -8.5 -2.5 -8.5
				c0 0 10 0.5 10 0.5 c0 0 1.87 -3.62 1.87 -3.62
				c0 0 -13.87 1.37 -13.87 1.37 c0 0 -12 -0.12 -12 -0.12 Z"/>
		<path id="Bezier_87" fill="#c4754d"
			d="M33.5 -31.62 c0.12 0.12 14.62 0 14.62 0 c0 0 -9.75 2.5 -9.75 2.5
				c0 0 -5 -1.62 -4.87 -2.5 Z"/>
		<path id="Bezier_89" fill="#c4754d"
			d="M39 -27.45 c0.12 0.12 5.12 0.01 5.12 0.01 c0 0 -2.5 1.79 -2.5 1.79
				c0 0 -2.5 -1.68 -2.62 -1.8 Z"
			transform="translate(-0.99,3.56) scale(1,1.125)"/>
	</g>
</g>

</svg>

