<?xml version="1.0" encoding="UTF-8" standalone="no"?>
<!-- Created with Inkscape (http://www.inkscape.org/) -->
<svg
   xmlns:dc="http://purl.org/dc/elements/1.1/"
   xmlns:cc="http://web.resource.org/cc/"
   xmlns:rdf="http://www.w3.org/1999/02/22-rdf-syntax-ns#"
   xmlns:svg="http://www.w3.org/2000/svg"
   xmlns="http://www.w3.org/2000/svg"
   xmlns:sodipodi="http://inkscape.sourceforge.net/DTD/sodipodi-0.dtd"
   xmlns:inkscape="http://www.inkscape.org/namespaces/inkscape"
   width="744.09448819"
   height="1052.3622047"
   id="svg2"
   sodipodi:version="0.32"
   inkscape:version="0.43"
   sodipodi:docbase="J:\Documents and Settings\Frank\Desktop\templates"
   sodipodi:docname="tshirt_design.svg">
  <defs
     id="defs4" />
  <sodipodi:namedview
     id="base"
     pagecolor="#ffffff"
     bordercolor="#666666"
     borderopacity="1.0"
     inkscape:pageopacity="0.0"
     inkscape:pageshadow="2"
     inkscape:zoom="1"
     inkscape:cx="961.80492"
     inkscape:cy="-148.1402"
     inkscape:document-units="px"
     inkscape:current-layer="layer1"
     inkscape:window-width="1074"
     inkscape:window-height="540"
     inkscape:window-x="168"
     inkscape:window-y="19" />
  <metadata
     id="metadata7">
    <rdf:RDF>
      <cc:Work
         rdf:about="">
        <dc:format>image/svg+xml</dc:format>
        <dc:type
           rdf:resource="http://purl.org/dc/dcmitype/StillImage" />
      </cc:Work>
    </rdf:RDF>
  </metadata>
  <g
     inkscape:label="Layer 1"
     inkscape:groupmode="layer"
     id="layer1">
    <path
       style="fill:#c8bb00;fill-opacity:1"
       d="M 348.92856,457.32108 C 343.42856,456.56387 330.37856,455.04646 319.92856,453.94907 C 291.79063,450.99419 282.85934,449.81789 281.31573,448.86355 C 278.91529,447.37946 282.37414,445.07787 290.43161,442.79768 C 297.94473,440.67152 301.67683,440.63145 320.92856,442.47026 C 325.59372,442.91584 327.69397,442.6418 330.36901,441.23846 C 332.26126,440.24578 333.96266,438.94186 334.14992,438.34087 C 334.33717,437.73987 330.92792,435.64265 326.57381,433.68038 C 322.2197,431.71812 318.3914,429.68248 318.06648,429.15675 C 317.28122,427.88617 320.10967,425.57058 324.42856,423.94828 C 331.40653,421.32715 334.42856,419.68213 334.42856,418.50486 C 334.42856,417.18122 329.48821,414.59662 322.4744,412.25091 C 319.97419,411.41474 316.55875,409.89686 314.88455,408.87784 C 311.69321,406.93541 290.96658,405.65697 217.92856,402.89746 C 182.95392,401.57606 180.76877,401.34258 180.11891,398.85751 C 179.82683,397.74058 177.63647,396.0284 175.0178,394.87004 C 170.67474,392.9489 170.42856,392.6266 170.42856,388.8618 C 170.42856,385.24157 170.69851,384.8296 173.42856,384.28359 C 177.18907,383.53149 177.1879,382.87287 173.42224,380.7301 C 170.46801,379.04906 170.42856,378.91528 170.42856,370.57875 L 170.42856,362.13089 L 181.67856,361.51982 C 187.86606,361.18373 205.30356,360.46567 220.42856,359.92412 C 235.55356,359.38257 263.90356,358.26866 283.42856,357.44875 L 318.92856,355.95801 L 321.17856,353.39004 C 323.25066,351.02511 323.42735,349.8579 323.41325,338.62783 C 323.40483,331.921 323.00382,325.8113 322.52212,325.05073 C 321.8575,324.00134 320.23347,323.82398 315.78743,324.31523 C 312.56505,324.67128 305.42856,325.23 299.92856,325.55682 C 290.67165,326.10688 289.72421,325.98895 287.17856,323.96973 C 282.91411,320.58716 283.95877,315.14644 289.18448,313.52268 C 292.38733,312.52747 352.51698,303.93359 356.27737,303.93359 C 358.31577,303.93359 360.98368,304.63411 362.20605,305.49029 C 364.2176,306.89923 364.63952,306.89923 366.65107,305.49029 C 367.87344,304.63411 370.54135,303.93359 372.57975,303.93359 C 376.34014,303.93359 436.46979,312.52747 439.67264,313.52268 C 444.89835,315.14644 445.94301,320.58716 441.67856,323.96973 C 439.13291,325.98895 438.18547,326.10688 428.92856,325.55682 C 423.42856,325.23 416.29207,324.67128 413.06969,324.31523 C 408.62365,323.82398 406.99962,324.00134 406.335,325.05073 C 405.8533,325.8113 405.45229,331.921 405.44387,338.62783 C 405.42977,349.85787 405.60647,351.02512 407.67856,353.39012 L 409.92856,355.95818 L 445.92856,357.4718 C 465.72856,358.30429 498.72637,359.62297 519.25704,360.40219 C 544.54424,361.36195 557.04406,362.19952 558.00704,362.99872 C 559.82505,364.50754 559.91471,376.41417 558.13455,379.93359 C 557.43907,381.30859 555.61685,383.03447 554.08518,383.76889 C 548.14832,386.61552 549.56836,389.62273 558.36383,392.82972 C 561.6105,394.01351 565.28877,395.80956 566.53776,396.82093 C 571.42919,400.78178 567.44254,401.243 513.42856,402.96529 C 448.38759,405.03918 403.01326,407.08548 401.2598,408.02391 C 398.62401,409.43454 398.98672,410.50242 402.67856,412.20102 C 404.46606,413.02344 407.61606,414.47598 409.67856,415.4289 C 411.74106,416.38181 413.42856,417.73457 413.42856,418.43501 C 413.42856,419.13546 410.39106,420.96674 406.67856,422.50452 C 402.96606,424.04231 399.13742,425.96598 398.17046,426.77936 C 396.62112,428.08262 396.58587,428.44994 397.87364,429.8729 C 398.67734,430.76098 401.71848,432.29839 404.63173,433.28936 C 407.54499,434.28034 410.81733,435.74186 411.90361,436.53717 C 413.61009,437.78656 413.70266,438.26505 412.58433,440.05578 C 411.87244,441.19569 411.54361,442.38198 411.8536,442.69197 C 412.16359,443.00196 416.66848,442.73314 421.86447,442.09459 C 433.6749,440.64317 445.2105,440.55165 443.84192,441.92023 C 443.29927,442.46288 440.30025,444.44543 437.17743,446.32589 C 432.60752,449.07774 427.83385,450.56193 412.71407,453.93181 C 402.38204,456.2346 390.77856,458.34319 386.92856,458.61756 C 380.63834,459.06584 379.24413,458.80195 373.17856,456.01505 C 365.78906,452.61985 364.63643,450.4537 369.67856,449.43747 C 371.46606,449.0772 377.20356,447.28696 382.42856,445.45915 C 401.44065,438.80836 401.48616,438.68819 387.30658,432.57905 C 384.21449,431.24686 381.4126,429.71678 381.08016,429.17888 C 380.28244,427.88814 383.08321,425.58052 387.42856,423.94828 C 398.59781,419.75278 399.62495,418.36355 393.67856,415.49501 C 386.49426,412.02931 377.12083,409.93359 368.80419,409.93359 C 362.8614,409.93359 360.34434,409.53703 359.45042,408.45993 C 358.37299,407.16171 357.88811,407.16171 355.37763,408.45993 C 353.79756,409.27701 349.85881,409.93359 346.53724,409.93359 C 343.24238,409.93359 340.2997,410.33307 339.99795,410.82131 C 339.6962,411.30956 341.91964,412.91766 344.93893,414.39486 C 347.95823,415.87207 350.42856,417.67196 350.42856,418.39462 C 350.42856,419.11728 347.39106,420.96674 343.67856,422.50452 C 339.96606,424.04231 336.13742,425.96598 335.17046,426.77936 C 333.56335,428.13122 333.5482,428.40831 334.99406,430.00597 C 335.86399,430.96723 337.71729,432.04023 339.11251,432.3904 C 343.67157,433.53465 350.42856,437.1257 350.42856,438.40439 C 350.42856,439.09219 347.72856,441.09402 344.42856,442.85291 C 341.12856,444.61179 338.42856,446.46591 338.42856,446.97318 C 338.42856,448.00685 338.40965,448.00183 354.70815,451.2962 C 365.82962,453.54415 371.16614,455.93114 369.84596,458.06724 C 369.11007,459.25793 360.859,458.9636 348.92856,457.32108 z M 388.42856,402.05844 C 403.12203,401.36076 408.42856,400.25029 408.42856,397.87316 C 408.42856,397.32862 405.0136,395.32685 400.83975,393.42477 C 396.1762,391.29952 393.41001,389.47827 393.66359,388.70001 C 394.2556,386.88316 398.181,385.21045 403.78288,384.38795 C 408.58476,383.68291 408.62422,383.69948 407.43526,385.92107 C 405.80484,388.96753 407.55008,390.59777 414.51044,392.53006 C 421.01054,394.33457 439.38228,395.43168 441.27073,394.12811 C 442.39362,393.35299 442.39362,392.84234 441.27073,391.00248 C 440.0748,389.04294 440.18148,388.596 442.24992,386.90039 C 443.52666,385.85377 446.11416,384.708 447.99992,384.35423 C 451.78699,383.64377 452.45246,382.39334 449.53611,381.46772 C 448.49526,381.13737 447.11558,379.59221 446.47016,378.03402 C 444.57893,373.46819 441.38787,372.43359 429.19656,372.43359 C 419.53197,372.43359 418.1031,372.6582 416.84795,374.37472 C 416.06728,375.44234 415.42856,377.33901 415.42856,378.58954 C 415.42856,382.88847 410.04021,383.77478 402.21181,380.76352 C 399.26491,379.62996 398.88019,378.82701 397.87681,371.71581 C 397.51069,369.12103 396.69756,366.58782 396.06985,366.08646 C 395.44214,365.58509 389.07856,364.97248 381.92856,364.7251 C 374.58507,364.47102 367.94955,363.75055 366.67856,363.06927 C 364.92229,362.12787 363.93483,362.12787 362.17856,363.06927 C 360.90757,363.75055 354.27205,364.47102 346.92856,364.7251 C 339.77856,364.97248 333.39451,365.60208 332.74177,366.12422 C 332.08904,366.64635 331.23937,369.59969 330.85361,372.68719 C 329.71561,381.79544 325.64644,384.48557 317.47287,381.53321 C 314.86745,380.59211 313.8122,379.4939 313.18404,377.06978 C 312.64476,374.98861 311.45985,373.51579 309.82463,372.89408 C 307.00328,371.8214 294.33484,371.60233 289.62282,372.54474 C 285.63897,373.34151 282.42856,376.39958 282.42856,379.39762 C 282.42856,381.16046 281.33761,382.39103 278.25202,384.10867 C 275.95492,385.38737 273.89029,387.00249 273.66394,387.69782 C 272.73118,390.56324 291.39187,394.93359 304.55955,394.93359 C 311.9176,394.93359 312.98914,394.01786 309.21099,390.9585 C 306.2768,388.58253 307.88031,386.56087 313.90162,385.04469 C 320.70095,383.3326 321.74733,383.52739 321.0333,386.3723 C 320.3043,389.27686 320.60688,389.50454 330.41748,393.43359 C 336.04105,395.68577 338.23602,397.11909 339.223,399.18359 C 340.50383,401.86275 340.76168,401.9354 349.23313,402.00388 C 354.01561,402.04253 358.82856,402.48775 359.92856,402.99325 C 361.02856,403.49875 364.40356,403.66081 367.42856,403.35338 C 370.45356,403.04595 379.90356,402.46323 388.42856,402.05844 z M 255.77789,391.99087 C 257.14163,391.47238 258.52549,390.20355 258.85313,389.17125 C 259.45556,387.27314 265.26371,383.93359 267.96249,383.93359 C 270.01843,383.93359 269.9097,383.71271 265.45463,378.83894 L 261.4807,374.49152 L 251.20463,374.46256 C 239.73461,374.43022 235.15287,375.87854 234.60688,379.7092 C 234.39999,381.16073 232.88341,382.68122 230.35688,383.97016 C 228.1963,385.0724 226.42856,386.62752 226.42856,387.42598 C 226.42856,390.86797 249.35311,394.43357 255.77789,391.99087 z M 487.01264,389.41618 C 489.1101,387.31872 492.32618,385.41838 494.9793,384.70877 C 499.76941,383.42762 500.55314,382.42529 497.51802,381.46198 C 496.46722,381.12847 494.91481,379.79845 494.06821,378.50638 C 491.89256,375.18592 484.09035,373.49965 474.61034,374.301 C 466.55003,374.98235 462.96595,376.90067 463.95153,380.00597 C 464.35602,381.28039 463.38094,382.36724 460.28913,384.08819 C 455.23151,386.90336 454.47527,388.5499 457.60001,389.9431 C 460.57876,391.27122 470.28039,392.65495 477.71189,392.81165 C 483.06634,392.92455 483.75608,392.67274 487.01264,389.41618 z M 212.81948,387.02782 C 216.05949,385.32599 219.54699,383.93359 220.56948,383.93359 C 221.59197,383.93359 222.42856,383.48359 222.42856,382.93359 C 222.42856,382.38359 222.01308,381.93359 221.50528,381.93359 C 220.99748,381.93359 219.14594,380.72522 217.39074,379.24831 C 214.6262,376.92211 213.0949,376.50506 205.9391,376.12948 C 195.76091,375.59526 190.42856,377.04948 190.42856,380.35945 C 190.42856,382.08013 189.45958,383.01084 186.42856,384.20145 C 177.63679,387.65496 184.55305,391.13028 198.92856,390.48253 C 205.50735,390.18609 207.97509,389.57236 212.81948,387.02782 z M 532.03404,387.96945 C 535.37568,386.33917 539.41375,384.50952 541.00754,383.90356 L 543.90533,382.80182 L 541.41695,380.80325 C 536.86339,377.146 532.73298,375.9303 525.21068,376.03327 C 516.00217,376.15932 513.23318,376.94106 511.79788,379.81998 C 511.16721,381.08498 509.30021,382.94156 507.649,383.94573 C 502.083,387.33062 502.64211,388.8213 509.92856,390.02337 C 519.58808,391.61692 525.72681,391.04654 532.03404,387.96945 z M 385.23866,351.08293 C 386.21206,349.85749 386.46907,345.90811 386.23866,335.71645 C 385.87565,319.65891 385.80004,319.51886 376.34237,317.3867 C 372.81478,316.59143 368.69106,315.2387 367.17856,314.38064 C 364.68702,312.96714 364.1701,312.96714 361.67856,314.38064 C 360.16606,315.2387 356.04234,316.59143 352.51475,317.3867 C 343.08853,319.51177 342.98453,319.70067 342.6025,335.39006 C 342.39818,343.78127 342.68387,349.54213 343.36771,350.81989 C 344.32562,352.60977 345.58746,352.89405 353.69377,353.14627 C 371.47554,353.69951 383.80063,352.89334 385.23866,351.08293 z M 566.11668,391.32919 C 562.69488,389.47423 563.03344,387.94538 567.24674,386.22617 L 570.42856,384.92785 L 570.42856,388.93072 C 570.42856,393.36887 570.15743,393.51968 566.11668,391.32919 z "
       id="path1426" />
    <g
       id="g1386"
       transform="translate(534.2857,-11.42857)" />
    <text
       xml:space="preserve"
       style="font-size:12px;font-style:normal;font-weight:normal;fill:#000000;fill-opacity:1;stroke:none;stroke-width:1px;stroke-linecap:butt;stroke-linejoin:miter;stroke-opacity:1;font-family:Bitstream Vera Sans"
       x="124"
       y="135.36218"
       id="text2301"><tspan
         sodipodi:role="line"
         id="tspan2303"
         x="124"
         y="135.36218"> </tspan></text>
    <path
       style="font-size:72px;font-style:italic;font-variant:normal;font-weight:normal;font-stretch:normal;text-align:center;line-height:100%;writing-mode:lr-tb;text-anchor:middle;fill:#d78b00;fill-opacity:1;stroke:none;stroke-width:1px;stroke-linecap:butt;stroke-linejoin:miter;stroke-opacity:1;font-family:Air Millhouse Italic"
       d="M 264.95719,83.858183 L 248.10919,90.194183 L 194.61319,149.09018 L 188.92519,152.90618 L 204.33319,152.90618 L 205.12519,149.16218 L 223.48519,128.85818 L 245.66119,128.85818 L 245.30119,134.76218 L 244.72519,135.48218 L 242.63719,137.35418 L 270.50119,137.21018 L 269.99719,135.33818 L 274.46119,80.330183 L 264.95719,83.858183 M 248.18119,102.29018 L 246.38119,122.81018 L 246.02119,122.95418 L 228.74119,122.95418 L 248.18119,101.42618 L 248.18119,102.29018 M 282.29344,113.52218 L 282.36544,112.87418 L 291.43744,112.87418 C 291.43742,113.21021 291.43742,113.54621 291.43744,113.88218 C 291.43742,114.21821 291.43742,114.57821 291.43744,114.96218 C 292.49342,113.52221 293.45341,112.85021 294.31744,112.94618 L 302.38144,112.87418 C 302.86141,112.87421 303.3654,112.94621 303.89344,113.09018 C 304.4214,113.61821 304.8534,114.33821 305.18944,115.25018 C 305.5254,114.77021 305.8614,114.33821 306.19744,113.95418 C 306.5814,113.57021 307.0614,113.21021 307.63744,112.87418 L 317.21344,112.87418 L 318.36544,113.37818 C 318.98939,114.19421 319.32539,115.22621 319.37344,116.47418 C 319.22939,117.2422 319.03739,118.0342 318.79744,118.85018 C 318.55739,119.6662 318.24539,120.4822 317.86144,121.29818 L 312.74944,133.82618 C 312.3654,134.88219 312.1734,136.03418 312.17344,137.28218 L 301.58944,137.28218 C 302.26141,136.85018 302.81341,136.29819 303.24544,135.62618 L 310.01344,118.99418 L 310.37344,117.98618 L 309.72544,117.41018 L 308.57344,117.05018 L 306.48544,117.26618 L 305.26144,117.98618 C 305.0214,118.6582 304.7814,119.3062 304.54144,119.93018 C 304.3494,120.5542 304.1094,121.1782 303.82144,121.80218 L 298.42144,134.83418 L 298.34944,135.69818 L 298.27744,136.34618 L 298.20544,137.28218 L 287.54944,137.28218 C 288.41342,136.51418 289.06142,135.53019 289.49344,134.33018 L 295.82944,118.77818 L 295.90144,118.13018 C 294.84541,116.9782 293.11742,116.9542 290.71744,118.05818 L 290.06944,118.92218 L 283.37344,135.26618 L 283.30144,137.28218 L 272.78944,137.28218 L 274.22944,135.19418 L 274.87744,134.04218 C 274.97343,133.80219 275.09343,133.56219 275.23744,133.32218 C 275.38143,133.03419 275.54943,132.72219 275.74144,132.38618 L 282.43744,115.97018 C 282.62943,115.01021 282.58143,114.19421 282.29344,113.52218 M 325.03669,115.75418 C 326.04468,114.45821 327.62867,113.37821 329.78869,112.51418 L 347.35669,112.51418 L 348.29269,112.65818 C 350.11665,114.43421 350.04465,117.1462 348.07669,120.79418 L 339.14869,120.79418 C 340.01266,119.4502 340.10866,118.2982 339.43669,117.33818 L 335.04469,117.33818 C 334.70867,117.5302 334.34867,117.7942 333.96469,118.13018 L 333.46069,118.99418 L 332.23669,121.94618 L 332.38069,122.52218 C 332.90867,122.6662 333.86867,122.7622 335.26069,122.81018 C 336.70066,122.8582 338.52466,122.8582 340.73269,122.81018 C 344.95666,122.7622 346.56465,124.0582 345.55669,126.69818 L 344.04469,130.51418 L 343.18069,132.38618 L 342.60469,133.17818 L 341.59669,134.76218 C 341.30866,135.09819 340.97266,135.41019 340.58869,135.69818 C 340.20466,135.98619 339.79666,136.27419 339.36469,136.56218 L 337.63669,137.13818 L 317.26069,137.13818 L 319.70869,129.50618 C 320.18868,129.84219 320.64468,130.25019 321.07669,130.73018 L 334.25269,130.65818 C 335.30867,130.41819 336.00467,129.89019 336.34069,129.07418 C 336.77266,128.21019 336.55666,127.75419 335.69269,127.70618 L 323.38069,127.77818 L 322.15669,127.41818 L 321.58069,127.27418 C 321.48468,127.17819 321.36468,127.05819 321.22069,126.91418 C 321.07668,126.77019 320.93268,126.48219 320.78869,126.05018 L 325.03669,115.75418 M 358.75744,112.80218 C 359.81342,110.78621 360.31742,109.20221 360.26944,108.05018 L 370.20544,108.05018 C 369.34141,109.10621 368.57341,110.69021 367.90144,112.80218 L 373.66144,112.80218 L 371.57344,117.91418 L 365.95744,117.98618 L 360.62944,130.80218 L 360.55744,131.37818 C 361.70942,132.38619 363.46142,132.53019 365.81344,131.81018 L 363.72544,136.85018 L 357.74944,137.21018 C 353.81343,137.59418 351.38943,136.87418 350.47744,135.05018 L 350.62144,133.03418 L 356.81344,117.98618 L 352.49344,117.98618 L 354.58144,112.80218 L 358.75744,112.80218 M 376.81706,114.67418 C 377.77705,113.85821 378.92905,113.21021 380.27306,112.73018 L 398.41706,112.73018 C 399.13703,113.06621 399.61703,113.66621 399.85706,114.53018 L 400.00106,116.11418 L 399.71306,116.97818 L 395.39306,127.63418 L 394.38506,127.77818 L 380.70506,127.77818 L 379.91306,127.92218 C 379.04905,129.36219 378.71305,130.82619 378.90506,132.31418 C 379.43305,132.55419 380.20105,132.62619 381.20906,132.53018 C 386.53704,132.81819 390.66504,132.45819 393.59306,131.45018 C 393.44903,131.83419 393.25703,132.26619 393.01706,132.74618 C 392.82503,133.17819 392.53703,133.68219 392.15306,134.25818 L 391.57706,135.41018 L 391.21706,136.20218 C 391.12104,136.29819 390.92904,136.68218 390.64106,137.35418 L 369.76106,137.28218 C 368.32106,136.61018 367.81706,135.65018 368.24906,134.40218 L 368.68106,132.67418 L 375.08906,116.97818 C 375.42505,116.3542 376.00105,115.58621 376.81706,114.67418 M 387.90506,117.26618 C 385.40904,117.2182 383.94504,117.8182 383.51306,119.06618 L 382.00106,122.73818 L 389.48906,122.73818 L 391.07306,119.06618 C 391.36104,117.7222 390.30504,117.1222 387.90506,117.26618 M 404.29744,114.74618 L 404.29744,112.65818 L 413.94544,112.65818 L 412.86544,115.25018 C 413.92142,113.61821 415.57741,112.77821 417.83344,112.73018 L 422.15344,112.73018 C 424.45741,113.06621 424.9134,115.13021 423.52144,118.92218 L 417.18544,118.92218 L 417.40144,118.20218 C 416.05741,117.1462 414.11342,117.2422 411.56944,118.49018 L 410.70544,120.43418 L 404.65744,135.12218 L 404.51344,135.98618 L 404.58544,137.28218 L 394.00144,137.28218 C 394.76944,136.65818 395.46543,135.74619 396.08944,134.54618 L 404.29744,114.74618 M 455.97881,107.69018 L 456.12281,107.25818 L 446.40281,107.25818 L 443.23481,115.10618 C 443.47479,113.81021 443.18679,112.99421 442.37081,112.65818 L 433.73081,112.73018 C 433.0588,112.73021 432.4108,112.82621 431.78681,113.01818 C 431.6428,113.06621 431.4508,113.13821 431.21081,113.23418 C 430.9708,113.28221 430.6588,113.40221 430.27481,113.59418 L 429.98681,113.73818 C 429.4588,114.12221 428.9788,114.55421 428.54681,115.03418 C 428.1148,115.5142 427.6588,116.0662 427.17881,116.69018 L 426.45881,118.20218 L 425.88281,119.21018 L 419.90681,133.68218 L 419.76281,134.40218 C 419.71481,135.07419 419.88281,135.81819 420.26681,136.63418 C 420.69881,137.06618 421.10681,137.30618 421.49081,137.35418 L 443.45081,137.35418 L 444.24281,133.68218 L 453.74681,110.64218 L 455.97881,107.69018 M 436.03481,117.77018 L 440.78681,117.77018 C 440.88279,117.9142 440.93079,118.0822 440.93081,118.27418 C 440.97879,118.4662 441.00279,118.6822 441.00281,118.92218 L 435.81881,131.45018 L 435.09881,132.17018 C 433.4188,132.98619 432.0268,133.20219 430.92281,132.81818 C 430.0108,132.48219 429.6268,132.00219 429.77081,131.37818 L 434.81081,119.06618 C 434.95479,118.8262 435.12279,118.6102 435.31481,118.41818 C 435.50679,118.1782 435.74679,117.9622 436.03481,117.77018 M 454.74806,115.53818 L 455.90006,112.87418 L 473.82806,112.87418 L 477.14006,113.30618 C 479.25203,113.54621 479.85203,115.37021 478.94006,118.77818 L 473.10806,133.10618 L 472.82006,133.97018 C 472.43603,134.88219 472.24403,135.86619 472.24406,136.92218 L 472.10006,137.35418 L 462.66806,137.35418 L 463.17206,135.26618 L 463.10006,134.97818 C 462.81204,135.65018 462.21204,136.29819 461.30006,136.92218 L 460.29206,137.35418 L 449.63606,137.35418 L 448.48406,136.63418 C 448.19606,134.28219 448.62806,131.76219 449.78006,129.07418 C 450.83606,126.0502 452.13205,124.0102 453.66806,122.95418 C 455.20405,121.8982 457.60405,121.2502 460.86806,121.01018 L 467.56406,121.01018 C 468.86004,120.7702 469.67604,120.1942 470.01206,119.28218 C 470.49204,118.3702 470.30004,117.8182 469.43606,117.62618 L 456.04406,117.62618 L 453.52406,118.70618 L 454.74806,115.53818 M 464.68406,125.25818 L 461.87606,125.25818 C 461.01205,125.3062 460.38805,126.0022 460.00406,127.34618 L 458.42006,131.01818 L 458.34806,132.02618 C 459.74005,133.03419 461.70804,132.81819 464.25206,131.37818 C 464.34804,131.23419 464.49204,130.97019 464.68406,130.58618 L 465.11606,129.50618 L 466.77206,125.40218 C 466.53204,125.2102 465.83604,125.1622 464.68406,125.25818 M 484.37156,113.52218 L 484.44356,112.87418 L 493.51556,112.87418 C 493.51554,113.21021 493.51554,113.54621 493.51556,113.88218 C 493.51554,114.21821 493.51554,114.57821 493.51556,114.96218 C 494.57154,113.52221 495.53154,112.85021 496.39556,112.94618 L 504.45956,112.87418 C 504.93953,112.87421 505.44353,112.94621 505.97156,113.09018 C 506.49953,113.61821 506.93153,114.33821 507.26756,115.25018 C 507.60353,114.77021 507.93953,114.33821 508.27556,113.95418 C 508.65953,113.57021 509.13953,113.21021 509.71556,112.87418 L 519.29156,112.87418 L 520.44356,113.37818 C 521.06751,114.19421 521.40351,115.22621 521.45156,116.47418 C 521.30751,117.2422 521.11551,118.0342 520.87556,118.85018 C 520.63551,119.6662 520.32352,120.4822 519.93956,121.29818 L 514.82756,133.82618 C 514.44352,134.88219 514.25152,136.03418 514.25156,137.28218 L 503.66756,137.28218 C 504.33953,136.85018 504.89153,136.29819 505.32356,135.62618 L 512.09156,118.99418 L 512.45156,117.98618 L 511.80356,117.41018 L 510.65156,117.05018 L 508.56356,117.26618 L 507.33956,117.98618 C 507.09953,118.6582 506.85953,119.3062 506.61956,119.93018 C 506.42753,120.5542 506.18753,121.1782 505.89956,121.80218 L 500.49956,134.83418 L 500.42756,135.69818 L 500.35556,136.34618 L 500.28356,137.28218 L 489.62756,137.28218 C 490.49154,136.51418 491.13954,135.53019 491.57156,134.33018 L 497.90756,118.77818 L 497.97956,118.13018 C 496.92354,116.9782 495.19554,116.9542 492.79556,118.05818 L 492.14756,118.92218 L 485.45156,135.26618 L 485.37956,137.28218 L 474.86756,137.28218 L 476.30756,135.19418 L 476.95556,134.04218 C 477.05156,133.80219 477.17156,133.56219 477.31556,133.32218 C 477.45956,133.03419 477.62756,132.72219 477.81956,132.38618 L 484.51556,115.97018 C 484.70755,115.01021 484.65955,114.19421 484.37156,113.52218 M 291.64556,203.59418 L 308.78156,161.97818 L 307.84556,159.89018 L 332.54156,159.89018 L 330.02156,162.19418 L 316.70156,194.59418 C 315.02153,201.60219 322.46153,203.06619 339.02156,198.98618 L 334.84556,208.85018 L 293.66156,208.85018 C 290.97356,208.32218 290.30156,206.57019 291.64556,203.59418 M 348.17119,185.37818 L 348.24319,184.94618 L 358.10719,184.94618 L 349.68319,205.17818 C 349.10718,206.57019 348.79518,207.93819 348.74719,209.28218 L 338.30719,209.28218 C 339.12319,208.56218 339.72318,207.79419 340.10719,206.97818 L 348.17119,187.68218 C 348.36318,187.25021 348.43518,186.84221 348.38719,186.45818 C 348.38718,186.07421 348.31518,185.71421 348.17119,185.37818 M 360.98494,186.74618 L 360.98494,184.65818 L 370.63294,184.65818 L 369.55294,187.25018 C 370.60892,185.61821 372.26491,184.77821 374.52094,184.73018 L 379.20094,184.80218 C 382.5129,184.65821 384.0009,185.47421 383.66494,187.25018 C 383.6169,188.1142 383.4249,189.1222 383.08894,190.27418 C 382.7529,191.3782 382.2489,192.6262 381.57694,194.01818 L 375.88894,207.84218 L 376.53694,209.35418 L 365.44894,209.28218 C 366.45692,207.93819 367.29692,206.64219 367.96894,205.39418 L 373.87294,190.92218 L 374.08894,190.20218 C 372.74491,189.1462 370.80092,189.2422 368.25694,190.49018 L 367.39294,192.43418 L 361.34494,207.12218 L 361.20094,207.98618 L 361.27294,209.28218 L 350.68894,209.28218 C 351.45694,208.65818 352.15293,207.74619 352.77694,206.54618 L 360.98494,186.74618 M 416.46319,179.69018 L 416.60719,179.25818 L 406.88719,179.25818 L 403.71919,187.10618 C 403.95916,185.81021 403.67116,184.99421 402.85519,184.65818 L 394.21519,184.73018 C 393.54317,184.73021 392.89517,184.82621 392.27119,185.01818 C 392.12717,185.06621 391.93517,185.13821 391.69519,185.23418 C 391.45517,185.28221 391.14317,185.40221 390.75919,185.59418 L 390.47119,185.73818 C 389.94317,186.12221 389.46318,186.55421 389.03119,187.03418 C 388.59918,187.51421 388.14318,188.0662 387.66319,188.69018 L 386.94319,190.20218 L 386.36719,191.21018 L 380.39119,205.68218 L 380.24719,206.40218 C 380.19918,207.07419 380.36718,207.81819 380.75119,208.63418 C 381.18318,209.06618 381.59118,209.30618 381.97519,209.35418 L 403.93519,209.35418 L 404.72719,205.68218 L 414.23119,182.64218 L 416.46319,179.69018 M 396.51919,189.77018 L 401.27119,189.77018 C 401.36716,189.9142 401.41516,190.0822 401.41519,190.27418 C 401.46316,190.4662 401.48716,190.6822 401.48719,190.92218 L 396.30319,203.45018 L 395.58319,204.17018 C 393.90317,204.98619 392.51117,205.20219 391.40719,204.81818 C 390.49517,204.48219 390.11117,204.00219 390.25519,203.37818 L 395.29519,191.06618 C 395.43917,190.8262 395.60717,190.6102 395.79919,190.41818 C 395.99117,190.1782 396.23117,189.9622 396.51919,189.77018 M 416.31244,187.82618 C 416.64843,186.86621 416.62443,185.95421 416.24044,185.09018 L 426.24844,185.09018 L 418.76044,203.16218 C 418.66442,203.73819 418.76042,204.19419 419.04844,204.53018 L 423.36844,204.53018 L 424.52044,203.88218 C 424.66442,203.54619 424.83242,203.18619 425.02444,202.80218 C 425.26442,202.41819 425.45642,202.03419 425.60044,201.65018 L 432.44044,185.01818 L 442.80844,185.09018 C 442.3764,185.61821 441.9684,186.17021 441.58444,186.74618 C 441.2484,187.32221 440.9124,187.92221 440.57644,188.54618 L 440.00044,189.62618 L 429.41644,215.25818 C 428.02441,218.71417 425.76842,220.89817 422.64844,221.81018 L 403.28044,221.81018 L 405.44044,214.61018 L 405.72844,214.03418 L 407.24044,215.18618 C 408.20043,215.42618 409.56843,215.49818 411.34444,215.40218 L 418.90444,215.40218 C 419.81642,215.30618 420.41642,214.82618 420.70444,213.96218 L 423.29644,207.98618 C 423.05642,208.70618 422.38442,209.09018 421.28044,209.13818 L 410.62444,209.21018 L 410.33644,209.06618 C 409.61643,208.68218 409.16043,208.15418 408.96844,207.48218 C 408.92043,207.00219 408.99243,206.30619 409.18444,205.39418 L 409.32844,204.53018 L 416.31244,187.82618 M 253.16944,235.77818 C 252.44942,236.59423 251.77742,237.38623 251.15344,238.15418 C 250.57742,238.87423 250.09742,239.57023 249.71344,240.24218 L 236.82544,271.56218 L 236.10544,274.87418 C 235.24143,277.41819 236.48943,279.36219 239.84944,280.70618 L 286.64944,280.77818 L 292.76944,269.04218 C 286.24138,271.05819 279.59339,272.13819 272.82544,272.28218 C 266.0094,272.42619 261.80941,271.89819 260.22544,270.69818 C 258.68941,269.4982 259.09741,266.5222 261.44944,261.77018 L 263.60944,261.77018 L 294.20944,261.77018 L 296.08144,261.69818 L 304.93744,240.24218 L 305.36944,238.58618 L 305.00944,235.49018 C 304.33736,233.61823 303.16136,232.39423 301.48144,231.81818 L 260.72944,231.81818 C 259.24141,232.29823 257.87341,232.87423 256.62544,233.54618 C 255.42541,234.21823 254.27341,234.96223 253.16944,235.77818 M 278.51344,240.74618 C 283.98538,240.50622 286.38538,241.73022 285.71344,244.41818 L 282.76144,251.69018 L 265.62544,251.76218 L 268.72144,244.49018 C 269.6814,241.85022 272.94539,240.60222 278.51344,240.74618 M 301.49381,257.66618 L 300.84581,256.73018 L 310.13381,256.73018 L 312.22181,263.71418 L 312.43781,264.43418 C 312.67779,264.0982 315.19779,261.6502 319.99781,257.09018 L 320.14181,256.73018 L 329.42981,256.73018 L 315.67781,269.25818 L 315.96581,270.19418 L 319.85381,281.28218 L 310.56581,281.28218 L 308.26181,273.57818 C 307.73379,274.15419 305.4298,276.31419 301.34981,280.05818 L 300.55781,281.28218 L 291.26981,281.28218 L 304.66181,268.97018 C 304.7098,268.5382 304.4698,267.3862 303.94181,265.51418 C 303.4138,263.6422 302.5978,261.0262 301.49381,257.66618 M 331.29956,259.39418 C 332.21155,258.24221 333.48355,257.40221 335.11556,256.87418 L 355.13156,256.94618 C 357.00353,257.28221 356.61953,260.4982 353.97956,266.59418 L 344.69156,266.59418 C 346.46754,263.4262 346.20354,261.8182 343.89956,261.77018 C 341.59554,261.7222 340.01154,262.0102 339.14756,262.63418 L 334.32356,274.15418 C 333.98755,274.97019 333.84355,275.59419 333.89156,276.02618 L 334.46756,276.53018 L 339.07556,276.53018 C 340.46754,275.66619 341.54754,273.93819 342.31556,271.34618 L 352.03556,271.34618 C 349.68353,277.82619 347.01954,281.16218 344.04356,281.35418 L 330.57956,281.35418 C 326.21156,281.45018 323.81156,280.75418 323.37956,279.26618 C 323.37956,279.02619 323.37956,278.69019 323.37956,278.25818 C 323.42756,277.82619 323.54756,277.29819 323.73956,276.67418 L 329.93156,261.62618 C 330.17155,260.9542 330.62755,260.2102 331.29956,259.39418 M 362.63756,253.99418 L 362.78156,251.90618 L 372.28556,251.90618 L 369.26156,259.25018 C 370.31754,257.61821 371.39754,256.77821 372.50156,256.73018 L 379.26956,256.65818 L 380.78156,256.80218 L 381.57356,257.09018 L 381.78956,257.23418 C 383.22953,259.25021 383.06153,262.1782 381.28556,266.01818 L 375.59756,279.84218 L 376.10156,281.28218 L 365.22956,281.28218 C 365.75755,280.56218 366.21355,279.89019 366.59756,279.26618 C 366.98154,278.59419 367.34154,277.97019 367.67756,277.39418 L 373.58156,262.92218 L 373.86956,262.20218 C 372.47754,261.1462 370.50954,261.2422 367.96556,262.49018 L 367.10156,264.43418 L 361.05356,279.12218 L 360.98156,279.98618 L 360.98156,281.28218 L 350.46956,281.28218 C 350.90156,280.89818 351.26156,280.49018 351.54956,280.05818 C 351.83756,279.57819 352.14956,279.07419 352.48556,278.54618 L 362.63756,253.99418 M 387.10744,259.53818 L 388.25944,256.87418 L 406.18744,256.87418 L 409.49944,257.30618 C 411.6114,257.54621 412.2114,259.37021 411.29944,262.77818 L 405.46744,277.10618 L 405.17944,277.97018 C 404.79541,278.88219 404.60341,279.86619 404.60344,280.92218 L 404.45944,281.35418 L 395.02744,281.35418 L 395.53144,279.26618 L 395.45944,278.97818 C 395.17142,279.65019 394.57142,280.29818 393.65944,280.92218 L 392.65144,281.35418 L 381.99544,281.35418 L 380.84344,280.63418 C 380.55543,278.28219 380.98743,275.76219 382.13944,273.07418 C 383.19543,270.05019 384.49143,268.0102 386.02744,266.95418 C 387.56343,265.8982 389.96342,265.2502 393.22744,265.01018 L 399.92344,265.01018 C 401.21941,264.7702 402.03541,264.1942 402.37144,263.28218 C 402.85141,262.3702 402.65941,261.8182 401.79544,261.62618 L 388.40344,261.62618 L 385.88344,262.70618 L 387.10744,259.53818 M 397.04344,269.25818 L 394.23544,269.25818 C 393.37142,269.3062 392.74742,270.00219 392.36344,271.34618 L 390.77944,275.01818 L 390.70744,276.02618 C 392.09942,277.03419 394.06742,276.81819 396.61144,275.37818 C 396.70742,275.23419 396.85142,274.97019 397.04344,274.58618 L 397.47544,273.50618 L 399.13144,269.40218 C 398.89142,269.2102 398.19542,269.1622 397.04344,269.25818 M 417.23494,258.74618 L 417.23494,256.65818 L 426.88294,256.65818 L 425.80294,259.25018 C 426.85892,257.61821 428.51491,256.77821 430.77094,256.73018 L 435.45094,256.80218 C 438.7629,256.65821 440.2509,257.47421 439.91494,259.25018 C 439.8669,260.1142 439.6749,261.1222 439.33894,262.27418 C 439.0029,263.3782 438.4989,264.6262 437.82694,266.01818 L 432.13894,279.84218 L 432.78694,281.35418 L 421.69894,281.28218 C 422.70692,279.93819 423.54692,278.64219 424.21894,277.39418 L 430.12294,262.92218 L 430.33894,262.20218 C 428.99491,261.1462 427.05092,261.2422 424.50694,262.49018 L 423.64294,264.43418 L 417.59494,279.12218 L 417.45094,279.98618 L 417.52294,281.28218 L 406.93894,281.28218 C 407.70694,280.65818 408.40293,279.74619 409.02694,278.54618 L 417.23494,258.74618 M 443.62519,261.69818 C 445.11318,258.96221 447.05717,257.45021 449.45719,257.16218 L 470.98519,257.16218 C 470.07315,258.12221 469.28115,259.05821 468.60919,259.97018 C 467.98515,260.8342 467.50515,261.6742 467.16919,262.49018 L 455.93719,289.85018 C 455.55317,290.71417 454.80917,291.67417 453.70519,292.73018 C 453.12917,293.25817 452.43317,293.69017 451.61719,294.02618 L 430.88119,294.02618 L 433.40119,286.25018 C 433.73719,286.68218 434.40919,287.09018 435.41719,287.47418 L 446.50519,287.61818 L 447.22519,287.33018 C 448.80917,285.65018 450.03317,283.39418 450.89719,280.56218 C 450.80117,280.65818 450.63317,280.77818 450.39319,280.92218 C 450.15317,281.06618 449.86517,281.25818 449.52919,281.49818 L 439.30519,281.49818 L 438.36919,281.35418 C 437.79318,281.11418 437.33718,280.75418 437.00119,280.27418 C 436.76118,279.65019 436.88118,278.52219 437.36119,276.89018 L 443.62519,261.69818 M 457.73719,261.98618 L 453.27319,261.98618 C 452.64917,261.9382 452.14517,262.2502 451.76119,262.92218 L 447.29719,273.65018 C 446.96117,274.46619 446.81717,275.30619 446.86519,276.17018 C 448.25717,277.08219 450.10517,277.01019 452.40919,275.95418 C 453.08117,275.28219 453.56117,274.49019 453.84919,273.57818 L 458.24119,263.06618 L 458.16919,262.41818 L 457.73719,261.98618 M 474.27019,258.67418 C 475.23017,257.85821 476.38217,257.21021 477.72619,256.73018 L 495.87019,256.73018 C 496.59015,257.06621 497.07015,257.66621 497.31019,258.53018 L 497.45419,260.11418 L 497.16619,260.97818 L 492.84619,271.63418 L 491.83819,271.77818 L 478.15819,271.77818 L 477.36619,271.92218 C 476.50217,273.36219 476.16617,274.82619 476.35819,276.31418 C 476.88617,276.55419 477.65417,276.62619 478.66219,276.53018 C 483.99017,276.81819 488.11816,276.45819 491.04619,275.45018 C 490.90216,275.83419 490.71016,276.26619 490.47019,276.74618 C 490.27816,277.17819 489.99016,277.68219 489.60619,278.25818 L 489.03019,279.41018 L 488.67019,280.20218 C 488.57416,280.29818 488.38216,280.68218 488.09419,281.35418 L 467.21419,281.28218 C 465.77418,280.61018 465.27018,279.65019 465.70219,278.40218 L 466.13419,276.67418 L 472.54219,260.97818 C 472.87818,260.3542 473.45418,259.58621 474.27019,258.67418 M 485.35819,261.26618 C 482.86217,261.2182 481.39817,261.8182 480.96619,263.06618 L 479.45419,266.73818 L 486.94219,266.73818 L 488.52619,263.06618 C 488.81416,261.7222 487.75816,261.1222 485.35819,261.26618"
       id="text2305" />
  </g>
</svg>
