<?xml version="1.0" encoding="UTF-8"?>
<svg id="svg2" version="1.1" baseProfile="tiny" viewBox="0 0 220 100" xmlns="http://www.w3.org/2000/svg" xmlns:xlink="http://www.w3.org/1999/xlink" xmlns:ev="http://www.w3.org/2001/xml-events">
    
    <g id="all" fill-opacity="0" stroke-opacity="0">
            <animateTransform id="animin" additive="sum" attributeName="transform" type="translate" keySplines=".5 0 .5 1" from="110,50" to="0,0" dur="1" begin="0" calcMode="spline" fill="freeze"/>
            <animateTransform id="animin2" additive="sum" attributeName="transform" type="scale" keySplines=".5 0 .5 1" from="0" to="1" dur="1" begin="animin.begin" calcMode="spline" fill="freeze"/>
            <animate id="animin3"  attributeName="fill-opacity"  begin="animin.begin" from="0" keySplines=".5 0 .5 1" to="0.99" dur="1" calcMode="spline" fill="freeze"/>
            <animate id="animin3"  attributeName="stroke-opacity"  begin="animin.begin" from="0" keySplines=".5 0 .5 1" to="0.99" dur="1" calcMode="spline" fill="freeze"/>

         
         
            <animateTransform id="animout"  additive="sum" attributeName="transform" type="translate" keySplines=".5 0 .5 1" from="0,0" to="-1100,-500" dur="1" begin="indefinite" calcMode="spline" fill="freeze"/>
            <animateTransform id="animout2" additive="sum" attributeName="transform" type="scale"  keySplines=".5 0 .5 1" from="1" to="10" dur="1" begin="animout.begin" calcMode="spline" fill="freeze"/>
            <animate          id="animout3" attributeName="fill-opacity"  begin="animout.begin" from="1" keySplines=".5 0 .5 1" to="0" dur="1" calcMode="spline" fill="freeze"/>
          <g id="panel">
            <path d="M18.417,9.438 L192.948,9.438 C196.511,9.438 199.378,12.811 199.378,17.001 L199.378,68.856 C199.378,73.045 196.511,76.418 192.948,76.418 L62.994,76.418 C48.057,94.62 33.121,93.917 18.184,97.57 C26.097,92.664 34.842,90.511 42.469,76.575 L18.417,76.418 C14.855,76.418 11.987,73.045 11.987,68.856 L11.987,17.001 C11.987,12.811 14.855,9.438 18.417,9.438 Z" fill="#ffff00" id="cloud" stroke="#000000" stroke-dasharray="none" stroke-miterlimit="4" stroke-width="2.659"/>
           <path d="M22.639,100.912 L22.639,125.085 L16.607,125.085 L16.607,123.651 C16.03,124.249 15.423,124.696 14.786,124.995 C14.149,125.294 13.482,125.443 12.785,125.443 C11.85,125.443 11.038,125.197 10.351,124.704 C9.665,124.211 9.224,123.641 9.03,122.994 C8.836,122.347 8.739,121.292 8.739,119.829 L8.739,110.557 C8.739,109.034 8.836,107.954 9.03,107.317 C9.224,106.68 9.67,106.12 10.366,105.638 C11.063,105.155 11.894,104.914 12.86,104.913 C13.606,104.914 14.291,105.048 14.913,105.317 C15.535,105.585 16.1,105.989 16.607,106.526 L16.607,100.912 L22.639,100.912 Z M16.607,110.259 C16.607,109.532 16.545,109.044 16.421,108.795 C16.296,108.547 16.05,108.422 15.682,108.422 C15.323,108.422 15.082,108.534 14.958,108.758 C14.833,108.982 14.771,109.482 14.771,110.259 L14.771,119.963 C14.771,120.77 14.831,121.3 14.95,121.554 C15.07,121.807 15.298,121.934 15.637,121.934 C16.025,121.934 16.284,121.792 16.413,121.509 C16.543,121.225 16.607,120.531 16.607,119.426 L16.607,110.259 Z M38.615,105.272 L38.615,125.085 L32.479,125.085 L32.583,123.442 C32.165,124.109 31.65,124.609 31.038,124.943 C30.426,125.276 29.721,125.443 28.925,125.443 C28.019,125.443 27.268,125.284 26.671,124.965 C26.073,124.647 25.633,124.224 25.349,123.696 C25.066,123.169 24.889,122.619 24.819,122.046 C24.75,121.474 24.715,120.337 24.715,118.635 L24.715,105.272 L30.747,105.272 L30.747,118.754 C30.747,120.297 30.794,121.213 30.888,121.501 C30.983,121.79 31.239,121.934 31.657,121.934 C32.105,121.934 32.372,121.785 32.456,121.486 C32.541,121.188 32.583,120.227 32.583,118.605 L32.583,105.272 L38.615,105.272 Z M47.17,102.629 L47.17,105.75 L48.798,105.75 L48.798,108.885 L47.17,108.885 L47.17,119.486 C47.17,120.79 47.237,121.516 47.372,121.666 C47.506,121.815 48.066,121.89 49.051,121.89 L49.051,125.085 L46.618,125.085 C45.244,125.085 44.264,125.027 43.676,124.913 C43.089,124.798 42.572,124.535 42.124,124.122 C41.676,123.709 41.397,123.236 41.288,122.703 C41.178,122.171 41.123,120.919 41.123,118.948 L41.123,108.885 L39.824,108.885 L39.824,105.75 L41.123,105.75 L41.123,102.629 L47.17,102.629 Z M63.459,112.752 L57.771,112.752 L57.771,110.468 C57.771,109.671 57.706,109.131 57.577,108.848 C57.447,108.564 57.208,108.422 56.86,108.422 C56.512,108.422 56.278,108.547 56.158,108.795 C56.039,109.044 55.979,109.602 55.979,110.468 L55.979,119.814 C55.979,120.521 56.069,121.051 56.248,121.404 C56.427,121.758 56.691,121.934 57.039,121.934 C57.447,121.934 57.724,121.75 57.868,121.382 C58.012,121.014 58.084,120.317 58.084,119.292 L58.084,116.933 L63.459,116.933 C63.449,118.515 63.392,119.702 63.288,120.493 C63.183,121.285 62.85,122.096 62.287,122.927 C61.725,123.758 60.991,124.385 60.085,124.808 C59.179,125.231 58.06,125.443 56.726,125.443 C55.024,125.443 53.675,125.152 52.68,124.57 C51.684,123.987 50.98,123.171 50.567,122.121 C50.154,121.071 49.947,119.58 49.947,117.649 L49.947,112.02 C49.947,110.338 50.116,109.069 50.455,108.213 C50.793,107.357 51.515,106.593 52.62,105.921 C53.725,105.249 55.068,104.914 56.651,104.913 C58.224,104.914 59.567,105.247 60.682,105.914 C61.797,106.581 62.539,107.422 62.907,108.437 C63.275,109.452 63.459,110.891 63.459,112.752 L63.459,112.752 Z M71.268,100.912 L71.268,106.347 C71.786,105.869 72.346,105.511 72.948,105.272 C73.55,105.033 74.194,104.914 74.881,104.913 C75.936,104.914 76.835,105.182 77.576,105.72 C78.318,106.257 78.771,106.877 78.935,107.579 C79.099,108.28 79.181,109.562 79.181,111.423 L79.181,125.085 L73.149,125.085 L73.149,111.14 C73.149,109.985 73.092,109.243 72.978,108.915 C72.863,108.586 72.607,108.422 72.209,108.422 C71.84,108.422 71.592,108.591 71.462,108.93 C71.333,109.268 71.268,109.94 71.268,110.945 L71.268,125.085 L65.236,125.085 L65.236,100.912 L71.268,100.912 Z" fill="#6e6453" font-family="Impact" font-size="30.578" id="dutch"/>
           <path d="M95.236,115.529 L87.427,115.529 L87.427,119.814 C87.427,120.71 87.492,121.287 87.621,121.546 C87.75,121.805 87.999,121.934 88.367,121.934 C88.825,121.934 89.131,121.763 89.286,121.419 C89.44,121.076 89.517,120.411 89.517,119.426 L89.517,116.813 L95.236,116.813 L95.236,118.276 C95.236,119.501 95.158,120.441 95.004,121.098 C94.85,121.755 94.489,122.457 93.922,123.203 C93.354,123.95 92.635,124.51 91.764,124.883 C90.893,125.256 89.801,125.443 88.487,125.443 C87.213,125.443 86.088,125.259 85.113,124.891 C84.137,124.522 83.378,124.017 82.836,123.375 C82.293,122.733 81.917,122.026 81.708,121.255 C81.499,120.484 81.395,119.361 81.395,117.888 L81.395,112.11 C81.395,110.378 81.629,109.012 82.097,108.012 C82.564,107.011 83.331,106.245 84.396,105.712 C85.461,105.18 86.685,104.914 88.069,104.914 C89.761,104.914 91.157,105.235 92.257,105.877 C93.357,106.519 94.128,107.37 94.571,108.43 C95.014,109.49 95.236,110.98 95.236,112.901 L95.236,115.529 Z M89.189,112.304 L89.189,110.856 C89.189,109.831 89.134,109.169 89.024,108.87 C88.915,108.572 88.691,108.422 88.353,108.422 C87.934,108.422 87.676,108.549 87.576,108.803 C87.477,109.057 87.427,109.741 87.427,110.856 L87.427,112.304 L89.189,112.304 Z M109.539,111.602 L104.194,111.602 L104.194,110.527 C104.194,109.612 104.142,109.032 104.037,108.788 C103.933,108.544 103.671,108.422 103.253,108.422 C102.915,108.422 102.661,108.534 102.492,108.758 C102.323,108.982 102.238,109.318 102.238,109.766 C102.238,110.373 102.28,110.819 102.365,111.102 C102.449,111.386 102.703,111.697 103.126,112.035 C103.549,112.374 104.418,112.867 105.732,113.514 C107.484,114.37 108.633,115.176 109.181,115.932 C109.728,116.689 110.002,117.789 110.002,119.232 C110.002,120.844 109.793,122.061 109.375,122.882 C108.957,123.704 108.257,124.336 107.277,124.779 C106.297,125.222 105.115,125.443 103.731,125.443 C102.198,125.443 100.887,125.204 99.797,124.726 C98.707,124.249 97.958,123.602 97.55,122.785 C97.142,121.969 96.938,120.735 96.938,119.083 L96.938,118.127 L102.283,118.127 L102.283,119.381 C102.283,120.446 102.35,121.138 102.484,121.457 C102.619,121.775 102.885,121.934 103.283,121.934 C103.711,121.934 104.01,121.827 104.179,121.613 C104.348,121.399 104.433,120.949 104.433,120.262 C104.433,119.317 104.323,118.724 104.104,118.485 C103.875,118.247 102.706,117.54 100.596,116.365 C98.824,115.37 97.744,114.467 97.356,113.655 C96.967,112.844 96.773,111.881 96.773,110.766 C96.773,109.184 96.982,108.017 97.4,107.265 C97.819,106.514 98.528,105.934 99.528,105.526 C100.528,105.118 101.69,104.914 103.014,104.914 C104.328,104.914 105.446,105.08 106.366,105.414 C107.287,105.747 107.994,106.188 108.486,106.735 C108.979,107.283 109.278,107.79 109.382,108.258 C109.487,108.726 109.539,109.457 109.539,110.453 L109.539,111.602 Z M123.932,111.602 L118.587,111.602 L118.587,110.527 C118.587,109.612 118.535,109.032 118.43,108.788 C118.326,108.544 118.064,108.422 117.646,108.422 C117.308,108.422 117.054,108.534 116.885,108.758 C116.716,108.982 116.631,109.318 116.631,109.766 C116.631,110.373 116.673,110.819 116.758,111.102 C116.842,111.386 117.096,111.697 117.519,112.035 C117.942,112.374 118.811,112.867 120.125,113.514 C121.877,114.37 123.026,115.176 123.574,115.932 C124.121,116.689 124.395,117.789 124.395,119.232 C124.395,120.844 124.186,122.061 123.768,122.882 C123.35,123.704 122.65,124.336 121.67,124.779 C120.69,125.222 119.508,125.443 118.124,125.443 C116.591,125.443 115.28,125.204 114.19,124.726 C113.1,124.249 112.351,123.602 111.943,122.785 C111.535,121.969 111.331,120.735 111.331,119.083 L111.331,118.127 L116.676,118.127 L116.676,119.381 C116.676,120.446 116.743,121.138 116.877,121.457 C117.012,121.775 117.278,121.934 117.676,121.934 C118.104,121.934 118.403,121.827 118.572,121.613 C118.741,121.399 118.826,120.949 118.826,120.262 C118.826,119.317 118.716,118.724 118.497,118.485 C118.268,118.247 117.099,117.54 114.989,116.365 C113.217,115.37 112.137,114.467 111.749,113.655 C111.361,112.844 111.166,111.881 111.166,110.766 C111.166,109.184 111.375,108.017 111.793,107.265 C112.212,106.514 112.921,105.934 113.921,105.526 C114.921,105.118 116.084,104.914 117.407,104.914 C118.721,104.914 119.839,105.08 120.759,105.414 C121.68,105.747 122.387,106.188 122.879,106.735 C123.372,107.283 123.671,107.79 123.775,108.258 C123.88,108.726 123.932,109.457 123.932,110.453 L123.932,111.602 Z M139.669,115.529 L131.86,115.529 L131.86,119.814 C131.86,120.71 131.925,121.287 132.054,121.546 C132.184,121.805 132.432,121.934 132.801,121.934 C133.259,121.934 133.565,121.763 133.719,121.419 C133.873,121.076 133.95,120.411 133.95,119.426 L133.95,116.813 L139.669,116.813 L139.669,118.276 C139.669,119.501 139.592,120.441 139.437,121.098 C139.283,121.755 138.922,122.457 138.355,123.203 C137.788,123.95 137.068,124.51 136.197,124.883 C135.326,125.256 134.234,125.443 132.92,125.443 C131.646,125.443 130.521,125.259 129.546,124.891 C128.57,124.522 127.811,124.017 127.269,123.375 C126.727,122.733 126.351,122.026 126.142,121.255 C125.933,120.484 125.828,119.361 125.828,117.888 L125.828,112.11 C125.828,110.378 126.062,109.012 126.53,108.012 C126.998,107.011 127.764,106.245 128.829,105.712 C129.894,105.18 131.119,104.914 132.502,104.914 C134.194,104.914 135.59,105.235 136.69,105.877 C137.79,106.519 138.561,107.37 139.004,108.43 C139.447,109.49 139.669,110.98 139.669,112.901 L139.669,115.529 Z M133.622,112.304 L133.622,110.856 C133.622,109.831 133.567,109.169 133.458,108.87 C133.348,108.572 133.124,108.422 132.786,108.422 C132.368,108.422 132.109,108.549 132.009,108.803 C131.91,109.057 131.86,109.741 131.86,110.856 L131.86,112.304 L133.622,112.304 Z M147.791,105.272 L147.686,107.093 C148.124,106.367 148.659,105.822 149.292,105.459 C149.924,105.095 150.653,104.914 151.479,104.914 C152.514,104.914 153.36,105.157 154.017,105.645 C154.674,106.133 155.097,106.748 155.286,107.489 C155.475,108.231 155.57,109.467 155.57,111.199 L155.57,125.085 L149.538,125.085 L149.538,111.364 C149.538,110 149.493,109.169 149.404,108.87 C149.314,108.572 149.065,108.422 148.657,108.422 C148.229,108.422 147.96,108.594 147.851,108.937 C147.741,109.281 147.686,110.199 147.686,111.692 L147.686,125.085 L141.655,125.085 L141.655,105.272 L147.791,105.272 Z M164.02,102.629 L164.02,105.75 L165.648,105.75 L165.648,108.885 L164.02,108.885 L164.02,119.486 C164.02,120.79 164.088,121.516 164.222,121.666 C164.356,121.815 164.916,121.89 165.902,121.89 L165.902,125.085 L163.468,125.085 C162.094,125.085 161.114,125.028 160.527,124.913 C159.939,124.799 159.422,124.535 158.974,124.122 C158.526,123.709 158.247,123.236 158.138,122.703 C158.028,122.171 157.974,120.919 157.974,118.948 L157.974,108.885 L156.675,108.885 L156.675,105.75 L157.974,105.75 L157.974,102.629 L164.02,102.629 Z M173.188,100.912 L173.188,104.063 L166.977,104.063 L166.977,100.912 L173.188,100.912 Z M173.188,105.272 L173.188,125.085 L166.977,125.085 L166.977,105.272 L173.188,105.272 Z M180.728,112.946 L175.069,112.946 L175.069,111.617 C175.069,110.085 175.246,108.903 175.599,108.071 C175.952,107.24 176.662,106.506 177.727,105.869 C178.792,105.232 180.175,104.914 181.877,104.914 C183.918,104.914 185.456,105.274 186.491,105.996 C187.526,106.718 188.148,107.604 188.357,108.654 C188.566,109.704 188.671,111.866 188.671,115.141 L188.671,125.085 L182.803,125.085 L182.803,123.323 C182.435,124.03 181.96,124.56 181.377,124.913 C180.795,125.266 180.101,125.443 179.294,125.443 C178.239,125.443 177.271,125.147 176.39,124.555 C175.51,123.962 175.069,122.666 175.069,120.665 L175.069,119.038 C175.069,117.555 175.303,116.544 175.771,116.007 C176.239,115.469 177.398,114.842 179.25,114.126 C181.23,113.349 182.29,112.827 182.43,112.558 C182.569,112.289 182.639,111.742 182.639,110.916 C182.639,109.88 182.562,109.206 182.407,108.893 C182.253,108.579 181.997,108.422 181.639,108.422 C181.23,108.422 180.977,108.554 180.877,108.818 C180.778,109.082 180.728,109.766 180.728,110.871 L180.728,112.946 Z M182.639,115.664 C181.673,116.37 181.113,116.963 180.959,117.44 C180.805,117.918 180.728,118.605 180.728,119.501 C180.728,120.526 180.795,121.188 180.929,121.486 C181.064,121.785 181.33,121.934 181.728,121.934 C182.106,121.934 182.353,121.817 182.467,121.584 C182.582,121.35 182.639,120.735 182.639,119.74 L182.639,115.664 Z M196.957,100.912 L196.957,125.085 L190.746,125.085 L190.746,100.912 L196.957,100.912 Z M211.425,111.602 L206.08,111.602 L206.08,110.527 C206.08,109.612 206.028,109.032 205.923,108.788 C205.819,108.544 205.557,108.422 205.139,108.422 C204.801,108.422 204.547,108.534 204.378,108.758 C204.208,108.982 204.124,109.318 204.124,109.766 C204.124,110.373 204.166,110.819 204.251,111.102 C204.335,111.386 204.589,111.697 205.012,112.035 C205.435,112.374 206.304,112.867 207.618,113.514 C209.369,114.37 210.519,115.176 211.067,115.932 C211.614,116.689 211.888,117.789 211.888,119.232 C211.888,120.844 211.679,122.061 211.261,122.882 C210.843,123.704 210.143,124.336 209.163,124.779 C208.183,125.222 207.001,125.443 205.617,125.443 C204.084,125.443 202.773,125.204 201.683,124.726 C200.593,124.249 199.844,123.602 199.436,122.785 C199.028,121.969 198.824,120.735 198.824,119.083 L198.824,118.127 L204.169,118.127 L204.169,119.381 C204.169,120.446 204.236,121.138 204.37,121.457 C204.505,121.775 204.771,121.934 205.169,121.934 C205.597,121.934 205.896,121.827 206.065,121.613 C206.234,121.399 206.319,120.949 206.319,120.262 C206.319,119.317 206.209,118.724 205.99,118.485 C205.761,118.247 204.592,117.54 202.482,116.365 C200.71,115.37 199.63,114.467 199.242,113.655 C198.853,112.844 198.659,111.881 198.659,110.766 C198.659,109.184 198.868,108.017 199.286,107.265 C199.704,106.514 200.414,105.934 201.414,105.526 C202.414,105.118 203.576,104.914 204.9,104.914 C206.214,104.914 207.331,105.08 208.252,105.414 C209.173,105.747 209.88,106.188 210.372,106.735 C210.865,107.283 211.164,107.79 211.268,108.258 C211.373,108.726 211.425,109.457 211.425,110.453 L211.425,111.602 Z" fill="#7c7e80" font-family="Impact" font-size="30.578" id="essentials"/>
            <path d="M27.911,19.221 L36.772,19.221 C42.492,19.221 46.359,19.483 48.375,20.008 C50.391,20.534 51.924,21.396 52.975,22.596 C54.025,23.797 54.681,25.133 54.944,26.605 C55.206,28.077 55.338,30.97 55.338,35.283 L55.338,51.233 C55.338,55.321 55.145,58.054 54.761,59.433 C54.376,60.811 53.706,61.889 52.75,62.667 C51.793,63.446 50.612,63.99 49.205,64.299 C47.799,64.608 45.68,64.763 42.848,64.763 L27.911,64.763 L27.911,19.221 Z M39.754,27.013 L39.754,56.971 C41.46,56.971 42.51,56.629 42.904,55.944 C43.298,55.26 43.495,53.399 43.495,50.361 L43.495,32.667 C43.495,30.604 43.429,29.282 43.298,28.701 C43.167,28.119 42.867,27.693 42.398,27.421 C41.929,27.149 41.048,27.013 39.754,27.013 L39.754,27.013 Z M59.754,19.221 L79.501,19.221 L79.501,28.335 L71.597,28.335 L71.597,36.971 L78.995,36.971 L78.995,45.635 L71.597,45.635 L71.597,55.649 L80.289,55.649 L80.289,64.763 L59.754,64.763 L59.754,19.221 Z M107.716,19.221 L103.58,39.362 L109.825,64.763 L98.855,64.763 C97.542,60.225 96.342,54.702 95.254,48.195 C94.954,51.064 94.541,54.111 94.016,57.337 L92.891,64.763 L81.358,64.763 L85.634,39.362 L81.358,19.221 L92.807,19.221 C93.013,20.477 93.426,22.568 94.044,25.494 C94.532,27.725 94.935,29.77 95.254,31.626 L97.786,19.221 L107.716,19.221 Z M111.513,19.221 L131.26,19.221 L131.26,28.335 L123.356,28.335 L123.356,36.971 L130.754,36.971 L130.754,45.635 L123.356,45.635 L123.356,55.649 L132.048,55.649 L132.048,64.763 L111.513,64.763 L111.513,19.221 Z M147.323,19.221 L147.323,55.649 L154.524,55.649 L154.524,64.763 L135.48,64.763 L135.48,19.221 L147.323,19.221 Z M182.513,33.004 L171.514,33.004 L171.514,29.629 C171.514,28.054 171.374,27.05 171.092,26.619 C170.811,26.188 170.342,25.972 169.686,25.972 C168.973,25.972 168.434,26.263 168.068,26.844 C167.703,27.425 167.52,28.307 167.52,29.488 C167.52,31.007 167.726,32.151 168.139,32.92 C168.533,33.689 169.648,34.617 171.486,35.705 C176.756,38.837 180.075,41.406 181.444,43.413 C182.813,45.419 183.498,48.654 183.498,53.117 C183.498,56.362 183.118,58.753 182.358,60.291 C181.599,61.828 180.132,63.118 177.956,64.158 C175.781,65.199 173.249,65.72 170.361,65.72 C167.192,65.72 164.487,65.119 162.246,63.919 C160.005,62.719 158.537,61.191 157.843,59.334 C157.149,57.478 156.802,54.843 156.802,51.43 L156.802,48.448 L167.801,48.448 L167.801,53.989 C167.801,55.696 167.956,56.793 168.265,57.281 C168.575,57.768 169.123,58.012 169.911,58.012 C170.699,58.012 171.285,57.703 171.669,57.084 C172.054,56.465 172.246,55.546 172.246,54.327 C172.246,51.645 171.88,49.892 171.149,49.067 C170.399,48.242 168.551,46.863 165.607,44.932 C162.663,42.981 160.712,41.565 159.756,40.684 C158.8,39.803 158.007,38.584 157.379,37.027 C156.751,35.471 156.437,33.483 156.437,31.063 C156.437,27.575 156.882,25.025 157.773,23.412 C158.664,21.799 160.103,20.538 162.091,19.629 C164.079,18.719 166.479,18.264 169.292,18.264 C172.368,18.264 174.988,18.761 177.154,19.755 C179.32,20.749 180.755,22.001 181.458,23.511 C182.162,25.02 182.513,27.585 182.513,31.204 L182.513,33.004 Z" fill="#000000" font-family="Impact" font-size="57.61" font-style="normal" font-weight="400" id="dexels" stroke="none" stroke-linecap="butt" stroke-linejoin="miter" stroke-width="1">
                   <animateColor id="animmouseover" attributeName="fill"  begin="dexels.mouseover" from="#000" keySplines=".5 0 .5 1" to="#fff" dur="1" calcMode="spline" fill="freeze"/>
       			   <animateColor id="animmouseover2" attributeName="fill"  begin="dexels.mouseout" from="#fff" keySplines=".5 0 .5 1" to="#000" dur="1" calcMode="spline" fill="freeze"/>
        
            </path>
          
        </g>
    </g>
</svg>
